 <svg  version="1.0" xmlns="http://www.w3.org/2000/svg"  width="450.000000pt" height="600.000000pt" viewBox="0 0 450.000000 600.000000"  preserveAspectRatio="xMidYMid meet">  <g transform="translate(0.000000,600.000000) scale(0.100000,-0.100000)" fill="#d9367c" stroke="none"> <path d="M1097 5063 c-15 -14 -6 -31 20 -38 21 -5 103 -77 103 -91 0 -2 -19 3 -41 11 -57 20 -81 19 -77 -2 3 -13 12 -17 33 -15 50 6 96 -8 122 -36 36 -38 175 -222 168 -222 -3 0 -28 11 -56 25 -27 14 -54 23 -59 20 -6 -4 -10 0 -10 7 0 9 -3 9 -10 -2 -16 -24 -12 -30 18 -28 35 2 124 -37 121 -54 -4 -29 3 -40 34 -58 17 -10 40 -35 51 -54 18 -33 18 -37 2 -71 -9 -19 -19 -35 -22 -35 -3 0 -3 4 0 9 8 13 -4 41 -17 41 -7 0 -7 -4 1 -12 15 -15 16 -32 1 -22 -8 5 -8 1 0 -14 17 -31 14 -34 -20 -17 -38 20 -46 41 -24 65 13 14 26 18 44 14 20 -4 23 -3 11 5 -38 27 -80 2 -80 -47 0 -11 -9 -22 -20 -25 -16 -4 -20 -14 -20 -46 0 -35 3 -41 25 -47 16 -4 25 -13 25 -26 0 -19 1 -19 18 3 12 14 25 20 36 16 9 -4 15 -10 14 -14 -3 -7 5 -13 17 -13 3 0 -1 14 -10 30 -9 17 -20 30 -24 30 -5 0 -18 3 -28 6 -10 3 -7 -2 7 -10 l25 -15 -36 -1 c-47 0 -66 21 -51 55 13 28 20 30 57 13 15 -7 24 -17 21 -25 -8 -21 12 -15 24 7 8 15 15 17 33 11 13 -5 21 -16 19 -25 -2 -9 4 -19 13 -22 21 -9 33 5 15 16 -11 7 -4 10 23 10 33 0 40 -4 51 -30 7 -17 15 -28 18 -24 4 3 2 17 -4 30 -9 19 -8 28 5 41 14 17 13 18 -16 19 -26 1 -28 0 -14 -11 21 -15 10 -27 -13 -15 -10 5 -20 6 -24 3 -11 -11 -6 7 8 30 15 25 32 91 18 69 -8 -11 -10 -11 -15 2 -4 9 -12 16 -19 16 -9 0 -9 -3 0 -12 21 -21 15 -74 -10 -90 -21 -13 -25 -13 -40 2 -24 22 -23 41 3 74 l22 28 -22 39 c-12 21 -19 44 -15 50 4 7 12 0 19 -19 25 -59 99 -49 111 15 5 26 11 33 29 33 13 0 26 7 29 16 6 16 6 16 -41 -3 -7 -3 -24 8 -38 23 -14 15 -28 24 -32 21 -3 -4 3 -17 15 -30 40 -43 27 -97 -24 -97 -30 0 -34 3 -35 28 -2 37 -2 34 6 60 5 17 2 22 -13 22 -15 0 -18 5 -14 25 3 16 0 25 -8 25 -9 0 -10 3 -1 14 9 10 7 17 -6 27 -15 13 -16 12 -11 -8 5 -17 2 -23 -10 -24 -12 0 -10 -3 6 -9 31 -13 28 -15 -22 -15 -40 0 -45 3 -74 46 -35 53 -56 141 -38 160 8 8 8 13 -1 16 -7 2 -9 11 -6 20 4 11 2 14 -8 11 -10 -3 -14 -21 -13 -63 l1 -58 -29 34 c-40 46 -60 95 -56 136 2 22 -3 37 -12 43 -11 7 -12 10 -2 10 7 0 10 5 7 10 -4 6 -11 7 -17 4 -9 -6 -6 -39 9 -104 5 -20 -2 -15 -37 25 -24 28 -56 58 -72 68 -32 19 -32 19 -41 10z m28 -13 c3 -5 1 -10 -4 -10 -6 0 -11 5 -11 10 0 6 2 10 4 10 3 0 8 -4 11 -10z m5 -110 c0 -5 -2 -10 -4 -10 -3 0 -8 5 -11 10 -3 6 -1 10 4 10 6 0 11 -4 11 -10z m395 -280 c-2 -13 2 -20 11 -20 23 0 16 -17 -15 -39 -25 -18 -33 -19 -55 -10 -21 10 -26 19 -26 51 l0 38 44 0 c39 0 44 -2 41 -20z"/> <path d="M1551 4824 c-11 -15 -18 -31 -15 -36 4 -6 -3 -5 -14 1 -27 14 -65 14 -80 -1 -15 -15 -16 -45 -1 -54 8 -4 9 1 4 17 -4 13 -4 21 0 17 5 -4 14 0 20 9 11 15 17 15 39 5 14 -6 31 -23 38 -37 13 -28 34 -35 23 -7 -12 31 -18 83 -9 80 5 -1 20 2 33 6 28 10 41 -5 41 -46 0 -29 -15 -46 -23 -26 -3 10 -7 10 -17 2 -9 -9 -7 -17 9 -33 23 -23 46 -27 57 -10 4 8 0 9 -15 4 -11 -3 -21 -2 -21 3 0 18 29 33 57 30 23 -2 29 -8 31 -35 2 -18 8 -33 13 -33 6 0 7 -4 4 -10 -4 -6 1 -7 11 -3 11 4 13 8 6 11 -7 2 -12 16 -12 31 0 36 -32 65 -63 59 -21 -4 -24 -1 -25 26 -2 56 -56 74 -91 30z"/> <path d="M1906 4731 c-20 -22 -21 -55 -1 -71 10 -9 15 -9 15 -1 0 6 6 11 14 11 8 0 16 6 19 13 2 6 2 2 0 -10 -3 -21 -1 -22 23 -13 33 13 42 7 36 -25 -3 -17 -11 -25 -24 -25 -17 0 -18 3 -9 14 8 10 9 16 1 21 -5 3 -10 -1 -10 -9 0 -9 -5 -16 -11 -16 -8 0 -8 -5 1 -15 29 -35 74 -7 68 42 -2 22 -9 29 -30 31 -18 2 -28 11 -32 27 -9 36 -39 49 -60 26z m40 -12 c3 -6 -3 -20 -14 -32 -19 -19 -22 -19 -28 -4 -11 29 26 61 42 36z"/> <path d="M1784 4698 c-4 -13 -7 -29 -5 -37 1 -8 -2 -10 -10 -5 -9 5 -10 2 -6 -9 4 -12 1 -17 -12 -17 -14 0 -17 -6 -13 -30 4 -28 13 -35 36 -31 13 2 36 -20 31 -29 -3 -5 0 -20 6 -34 15 -31 -2 -56 -36 -56 -31 0 -50 -23 -32 -39 16 -13 28 -5 20 15 -7 19 12 18 31 -2 29 -29 13 -74 -26 -74 -10 0 -18 -4 -18 -10 0 -14 14 -12 48 7 31 18 38 51 14 75 -8 8 -6 17 5 35 12 19 13 29 5 48 -7 15 -8 26 -2 30 6 4 10 1 10 -4 0 -6 9 -11 19 -11 10 0 22 -7 25 -16 4 -9 9 -15 11 -12 11 10 -8 38 -25 38 -21 0 -29 16 -22 43 5 18 32 24 32 6 0 -5 -6 -7 -12 -3 -10 6 -10 5 -1 -8 7 -8 9 -18 5 -23 -4 -4 4 -2 17 5 17 8 26 9 34 1 19 -19 31 -12 14 7 -10 10 -17 25 -18 33 0 8 -5 3 -11 -11 -10 -22 -12 -23 -15 -6 -3 10 0 23 6 29 19 19 12 29 -10 14 -11 -8 -29 -12 -40 -10 -17 5 -19 2 -13 -21 5 -20 3 -26 -11 -26 -12 0 -16 6 -12 20 3 11 1 20 -4 20 -5 0 -9 -4 -9 -10 0 -5 -9 -10 -20 -10 -26 0 -26 27 -1 35 12 4 18 12 14 21 -3 9 2 14 16 14 21 0 28 14 12 24 -5 4 -12 0 -14 -6 -4 -9 -6 -7 -6 3 -1 27 21 39 42 24 15 -11 16 -17 7 -34 -10 -19 -8 -21 25 -21 22 0 34 4 30 10 -3 6 -13 10 -21 10 -9 0 -14 5 -12 12 6 18 -24 48 -49 48 -14 0 -24 -8 -29 -22z"/> <path d="M1566 4701 c-4 -5 -2 -12 3 -15 5 -4 12 -2 15 3 4 5 2 12 -3 15 -5 4 -12 2 -15 -3z"/> <path d="M1632 4679 c2 -6 8 -10 13 -10 5 0 11 4 13 10 2 6 -4 11 -13 11 -9 0 -15 -5 -13 -11z"/> <path d="M1577 4633 c-11 -10 -8 -25 3 -18 6 3 10 -1 10 -9 0 -9 5 -16 11 -16 6 0 8 7 5 16 -3 9 -6 20 -6 25 0 11 -14 12 -23 2z"/> <path d="M1920 4629 c0 -5 5 -7 10 -4 6 3 10 8 10 11 0 2 -4 4 -10 4 -5 0 -10 -5 -10 -11z"/> <path d="M1925 4590 c3 -5 13 -10 21 -10 8 0 12 5 9 10 -3 6 -13 10 -21 10 -8 0 -12 -4 -9 -10z"/> <path d="M1967 4573 c-4 -3 -7 -11 -7 -17 0 -6 5 -5 12 2 6 6 9 14 7 17 -3 3 -9 2 -12 -2z"/> <path d="M1661 4544 c-26 -33 -26 -36 -2 -65 15 -18 22 -21 31 -13 7 7 10 20 7 30 -4 17 -6 16 -12 -4 -6 -18 -10 -20 -16 -10 -11 16 -12 58 -1 59 39 7 52 5 53 -10 0 -11 2 -12 6 -3 6 15 -14 42 -32 42 -8 0 -23 -12 -34 -26z"/> <path d="M1749 4523 c-40 -51 -44 -97 -4 -53 11 12 13 20 6 20 -8 0 -8 5 1 20 7 11 19 18 25 15 7 -2 13 0 13 5 0 16 -26 11 -41 -7z"/> <path d="M1890 4529 c0 -5 5 -7 10 -4 6 3 10 8 10 11 0 2 -4 4 -10 4 -5 0 -10 -5 -10 -11z"/> <path d="M1960 4529 c0 -7 -9 -9 -21 -6 -16 4 -19 2 -15 -10 4 -8 1 -33 -5 -55 -10 -38 -12 -40 -41 -34 -30 6 -30 5 -15 -12 10 -10 14 -22 10 -27 -5 -4 -2 -5 6 0 9 5 12 4 7 -3 -4 -7 -17 -12 -29 -12 -15 0 -18 -3 -10 -11 19 -19 48 -6 48 21 0 14 7 30 16 37 8 6 21 30 29 52 7 22 19 42 26 45 16 6 19 26 4 26 -5 0 -10 -5 -10 -11z"/> <path d="M1844 4487 c3 -33 20 -54 30 -38 4 6 4 11 -1 11 -4 0 -1 5 7 10 12 8 12 10 1 10 -8 0 -20 8 -27 18 -12 15 -13 14 -10 -11z"/> <path d="M1646 4451 c-4 -7 -5 -15 -2 -18 9 -9 19 4 14 18 -4 11 -6 11 -12 0z"/> <path d="M3601 4437 c-35 -17 -61 -68 -68 -130 l-6 -54 -56 -23 c-31 -13 -87 -38 -124 -57 l-68 -34 16 30 c17 34 20 117 5 155 -6 16 -17 26 -29 26 -38 0 -72 -152 -49 -215 7 -17 -1 -24 -46 -48 -57 -30 -163 -133 -189 -183 -23 -45 -72 -91 -126 -119 -30 -16 -39 -24 -26 -24 11 -1 34 8 50 19 17 11 45 30 63 41 17 12 32 25 32 30 0 5 8 17 18 27 10 10 24 33 32 51 7 18 25 44 39 57 l26 24 17 -34 c33 -64 150 -97 187 -52 17 20 -57 80 -120 98 l-50 14 119 62 119 62 21 -29 c29 -39 98 -71 155 -71 35 0 49 4 54 17 10 24 -51 70 -121 92 -41 12 -53 20 -40 23 11 4 72 27 138 52 65 25 122 43 126 41 4 -3 13 -17 19 -33 29 -70 188 -102 167 -34 -10 29 -63 72 -97 79 -16 3 -29 8 -29 12 0 13 87 39 113 34 30 -6 33 1 15 40 -16 32 -35 35 -40 6 -2 -18 -25 -30 -123 -66 -176 -65 -175 -65 -172 -45 2 9 16 41 31 70 28 50 53 68 53 38 0 -8 -5 -14 -10 -13 -5 1 -12 -4 -15 -12 -3 -10 0 -11 9 -5 12 7 12 5 0 -9 -7 -9 -17 -14 -22 -11 -5 3 -9 -1 -9 -10 0 -8 -4 -16 -10 -18 -5 -2 -6 -9 -1 -16 13 -21 48 5 71 54 23 46 25 75 8 92 -15 15 -27 15 -57 -1z m-340 -267 c-9 -22 -10 -20 -10 20 -1 25 3 63 7 85 7 39 7 38 10 -20 2 -34 -2 -72 -7 -85z m503 105 c10 -8 23 -12 29 -8 6 3 7 1 4 -4 -9 -14 19 -37 33 -28 6 4 9 1 8 -7 -2 -7 4 -12 12 -10 12 3 12 1 3 -9 -10 -9 -24 -3 -68 30 -30 23 -55 44 -55 46 0 9 15 4 34 -10z m-248 -162 c11 -7 24 -10 29 -6 4 5 6 2 4 -5 -5 -16 -9 -16 -81 15 -31 14 -59 31 -62 38 -5 14 67 -14 110 -42z m-311 -135 c52 -25 60 -41 14 -28 -18 5 -37 7 -43 3 -6 -3 -8 -3 -4 2 4 4 -3 16 -15 26 -30 25 -7 24 48 -3z"/> <path d="M1690 4430 c0 -5 5 -10 10 -10 6 0 10 5 10 10 0 6 -4 10 -10 10 -5 0 -10 -4 -10 -10z"/> <path d="M2920 4417 c-27 -13 -75 -100 -85 -157 -6 -32 -5 -33 7 -15 8 11 20 38 27 60 18 51 42 84 61 85 26 0 50 -38 51 -83 1 -52 -3 -70 -21 -93 -14 -18 -14 -18 3 -5 9 8 25 29 34 49 15 32 15 38 -2 88 -24 70 -42 87 -75 71z"/> <path d="M1688 4389 c-10 -5 -18 -15 -18 -21 0 -9 3 -9 12 0 8 8 15 9 25 1 10 -9 13 -7 13 10 0 23 -6 25 -32 10z"/> <path d="M1727 4370 c-8 -38 -52 -94 -66 -86 -16 10 -19 -30 -5 -64 18 -42 19 -40 -16 -34 -41 9 -77 -2 -83 -26 -8 -33 14 -89 39 -97 22 -8 22 -8 3 -31 -16 -20 -21 -22 -32 -10 -8 7 -37 31 -65 53 -29 21 -52 45 -52 52 0 12 -55 128 -68 143 -5 7 -72 -72 -72 -85 1 -5 14 5 31 23 27 30 31 31 45 18 8 -9 12 -22 8 -28 -4 -7 -4 -10 1 -6 4 4 23 -23 41 -60 37 -75 45 -151 19 -188 -13 -20 -12 -22 24 -39 27 -12 44 -28 55 -54 54 -124 114 -205 177 -236 l50 -26 -7 -52 c-4 -29 -12 -56 -18 -60 -7 -6 -4 -7 6 -3 20 6 106 -38 130 -68 11 -13 18 -16 18 -8 0 24 -21 52 -39 52 -11 0 -22 7 -25 15 -3 9 -11 15 -18 14 -29 -3 -33 3 -30 50 4 53 12 60 89 78 38 9 44 8 64 -13 31 -33 80 -54 99 -44 9 5 26 6 38 3 39 -10 22 12 -27 35 -44 20 -123 91 -165 147 -26 35 -17 -3 10 -45 15 -22 31 -37 37 -33 6 3 7 1 3 -5 -4 -7 -1 -12 6 -12 7 -1 28 -14 46 -29 24 -20 30 -31 21 -36 -8 -6 -10 -4 -4 5 6 10 4 12 -9 7 -9 -4 -15 -3 -12 2 6 10 -62 46 -80 43 -5 -1 -23 11 -39 28 -35 37 -39 37 -54 4 -12 -28 -6 -48 9 -25 9 15 40 8 40 -8 0 -6 -7 -8 -15 -5 -8 3 -24 -1 -36 -9 -19 -14 -24 -14 -36 -1 -8 7 -11 20 -7 26 6 10 4 11 -7 1 -16 -16 -33 -17 -23 -1 4 7 3 8 -5 4 -18 -11 -87 62 -73 76 7 7 17 13 24 14 7 1 24 5 38 9 28 7 42 -11 55 -70 6 -26 8 -28 17 -12 9 18 8 48 -7 129 -7 34 -5 37 26 54 19 9 66 27 104 40 69 22 69 22 30 24 -22 1 -48 3 -57 5 -10 2 -18 -1 -18 -6 0 -5 10 -9 23 -10 22 0 22 0 -2 -10 -13 -5 -26 -7 -28 -5 -3 3 -20 -4 -39 -14 l-33 -19 -21 27 c-19 24 -21 35 -9 67 2 6 1 11 -3 13 -5 1 -8 -1 -9 -5 0 -5 -5 -13 -10 -20 -7 -7 -4 -24 7 -50 9 -21 18 -65 19 -98 3 -52 2 -55 -6 -27 -9 31 -11 32 -32 17 -12 -8 -33 -15 -47 -15 -15 0 -31 -9 -38 -21 -7 -12 -16 -18 -19 -15 -3 3 0 12 7 21 10 13 8 18 -13 36 -38 29 -52 88 -32 135 8 20 15 49 15 63 0 30 36 71 62 71 9 0 18 7 22 15 3 8 0 15 -6 15 -7 0 -3 6 7 14 19 14 19 15 1 35 -11 12 -24 21 -30 21 -6 0 -3 -7 7 -14 21 -16 21 -20 1 -40 -8 -9 -11 -16 -5 -16 6 0 11 -4 11 -10 0 -28 -76 3 -84 34 -14 58 22 88 75 62 27 -13 30 -13 25 -1 -3 8 -1 15 4 15 6 0 9 17 9 38 -1 41 14 88 37 114 9 9 14 29 12 45 -3 28 -4 27 -11 -7z m-202 -344 c8 -7 11 -17 7 -20 -3 -4 1 -4 11 0 16 6 19 2 20 -38 0 -7 -5 -25 -11 -40 -11 -27 -12 -27 -41 -11 -16 10 -27 22 -23 27 3 6 5 25 4 44 -4 50 8 63 33 38z"/> <path d="M2678 4366 c-10 -7 -18 -20 -18 -28 0 -19 59 -112 67 -104 3 3 0 12 -7 21 -7 9 -10 18 -7 21 3 4 0 13 -8 21 -17 17 -20 43 -5 43 14 0 41 -27 70 -70 54 -78 67 -77 16 2 -35 55 -60 81 -86 91 -10 4 -8 6 7 6 40 2 76 -22 94 -64 10 -22 19 -34 19 -27 0 23 -28 69 -54 86 -30 19 -65 20 -88 2z"/> <path d="M1505 4350 c3 -5 10 -10 16 -10 5 0 9 5 9 10 0 6 -7 10 -16 10 -8 0 -12 -4 -9 -10z"/> <path d="M907 4323 c-11 -10 -8 -133 3 -133 6 0 11 11 11 25 1 14 2 31 3 38 1 6 -1 19 -6 28 -5 12 -2 18 12 22 11 3 20 1 20 -4 0 -4 6 -6 14 -3 16 6 69 -19 99 -47 12 -10 25 -19 29 -19 5 0 6 -6 2 -12 -4 -7 -4 -10 1 -6 4 4 14 0 21 -10 7 -9 15 -14 19 -10 6 6 -55 67 -92 93 -17 11 -109 45 -123 45 -4 0 -10 -3 -13 -7z"/> <path d="M2080 4321 c0 -5 -30 -38 -66 -75 l-66 -66 -25 20 c-55 43 -126 37 -179 -16 -28 -29 -34 -31 -34 -15 0 29 32 62 70 71 l35 8 -37 1 c-61 2 -77 -23 -77 -116 0 -43 4 -92 10 -110 8 -25 7 -37 -5 -55 -22 -34 -67 -158 -57 -158 4 0 23 38 41 85 18 46 35 84 39 83 3 0 12 0 20 1 12 1 12 3 -2 14 -10 7 -18 34 -22 72 -7 59 -6 61 28 99 23 25 41 36 51 33 9 -4 16 -2 16 3 0 6 9 10 20 10 24 0 70 -21 70 -32 0 -4 3 -7 8 -7 22 4 32 -3 32 -21 0 -11 5 -20 11 -20 5 0 7 -5 3 -12 -4 -6 -3 -8 4 -4 6 3 13 -2 16 -11 3 -10 22 -28 41 -41 l35 -22 2 22 c11 139 25 158 128 172 8 1 22 5 30 8 28 12 70 15 70 7 0 -5 6 -9 14 -9 28 0 39 -30 39 -108 0 -72 1 -75 13 -47 14 32 16 94 5 135 -4 14 -22 33 -43 45 -36 19 -38 19 -110 1 -40 -10 -86 -23 -101 -28 -29 -11 -57 -53 -57 -86 0 -27 -50 -37 -67 -14 -7 8 -13 21 -13 28 0 19 99 114 119 114 22 0 45 25 36 40 -8 12 -45 14 -45 1z m30 -10 c0 -12 -20 -25 -27 -18 -7 7 6 27 18 27 5 0 9 -4 9 -9z m-50 -224 c0 -13 -43 -4 -47 10 -2 6 4 13 14 15 17 4 33 -8 33 -25z"/> <path d="M1519 4318 c0 -2 -2 -18 -3 -36 -6 -60 -47 -83 -68 -37 -11 24 -28 34 -28 17 0 -23 34 -52 61 -52 24 0 33 6 43 30 12 30 12 30 31 10 20 -22 42 -25 65 -9 12 8 11 9 -6 4 -26 -7 -74 29 -74 56 0 10 -4 19 -10 19 -5 0 -10 -1 -11 -2z"/> <path d="M1455 4299 c-11 -17 1 -21 15 -4 8 9 8 15 2 15 -6 0 -14 -5 -17 -11z"/> <path d="M2575 4270 c-13 -15 -16 -28 -10 -57 7 -39 95 -199 95 -173 0 8 -14 38 -30 65 -16 28 -30 60 -30 72 0 12 -4 25 -10 28 -5 3 -10 13 -10 22 0 11 7 14 25 11 31 -6 32 6 3 26 -26 19 -7 21 25 4 20 -10 21 -10 8 5 -18 23 -44 21 -66 -3z"/> <path d="M3040 4274 c-16 -10 -18 -13 -5 -8 26 9 95 18 95 11 0 -2 -23 -12 -51 -21 -63 -21 -87 -41 -62 -51 10 -3 14 -3 10 1 -7 7 56 44 74 44 3 0 7 -11 7 -25 0 -15 -6 -25 -14 -25 -8 0 -14 -7 -14 -16 0 -16 -56 -75 -63 -68 -2 3 -25 -14 -51 -37 -31 -28 -60 -68 -86 -120 -22 -43 -53 -93 -70 -112 -26 -30 -28 -36 -14 -41 20 -8 52 20 95 78 43 58 35 65 -10 9 -21 -26 -49 -57 -62 -68 -15 -13 -12 -6 9 18 18 21 48 70 68 110 34 69 110 161 124 152 10 -6 88 62 102 88 21 41 27 85 11 91 -26 10 -67 6 -93 -10z"/> <path d="M1020 4235 c0 -14 2 -25 4 -25 2 0 6 11 8 25 3 14 1 25 -3 25 -5 0 -9 -11 -9 -25z"/> <path d="M2650 4230 c20 -13 53 -13 45 0 -3 6 -18 10 -33 10 -21 0 -24 -2 -12 -10z"/> <path d="M2740 4235 c0 -3 10 -25 23 -48 18 -35 22 -56 21 -132 -1 -49 -9 -119 -17 -155 l-15 -65 -1 123 c-1 124 -15 212 -33 212 -6 0 -7 -7 -2 -17 4 -10 10 -84 13 -164 4 -98 10 -151 19 -162 8 -9 9 -18 4 -21 -19 -12 -31 22 -42 114 -14 116 -33 190 -60 221 -10 13 -19 19 -20 14 0 -6 5 -16 10 -21 16 -16 47 -142 53 -214 3 -36 9 -74 13 -84 5 -13 4 -17 -4 -12 -6 3 -14 2 -17 -4 -4 -6 8 -24 26 -41 l32 -30 -26 -27 -27 -27 0 33 c0 18 -9 49 -19 70 -19 38 -57 79 -66 71 -2 -3 -7 -30 -11 -60 -8 -66 9 -135 37 -149 18 -10 17 -14 -28 -62 -87 -93 -98 -103 -123 -115 l-25 -12 23 0 c15 -1 39 15 66 44 51 53 80 57 125 19 32 -27 61 -26 61 0 0 19 -12 26 -65 40 l-43 11 67 72 66 72 -9 -102 c-14 -147 -11 -236 8 -281 9 -22 19 -37 22 -33 3 3 0 49 -7 104 -15 114 -14 159 4 187 16 26 5 125 -15 137 -17 11 -2 11 20 0 36 -18 72 -22 72 -7 0 7 -13 16 -29 19 -25 5 -28 10 -24 29 6 23 6 23 -15 4 -22 -19 -22 -19 -22 0 0 11 23 55 50 99 28 44 50 84 50 90 0 12 -14 -7 -41 -58 -25 -48 -35 -43 -14 7 11 26 13 42 5 56 -5 10 -10 51 -10 90 0 56 -5 81 -25 120 -23 45 -35 60 -35 45z m-100 -463 c11 -41 14 -99 4 -89 -4 3 -10 23 -14 44 -4 21 -11 51 -15 67 -6 20 -5 27 3 22 6 -4 16 -23 22 -44z m90 28 c0 -5 -2 -10 -4 -10 -3 0 -8 5 -11 10 -3 6 -1 10 4 10 6 0 11 -4 11 -10z m-56 -120 c-6 -6 -10 -3 -10 10 0 13 4 16 10 10 7 -7 7 -13 0 -20z"/> <path d="M1002 4179 c27 -48 84 -116 91 -109 6 6 -95 149 -106 149 -5 1 2 -18 15 -40z"/> <path d="M1056 4198 c-8 -32 -7 -40 3 -34 11 7 21 56 11 56 -4 0 -10 -10 -14 -22z"/> <path d="M2821 4140 c-1 -36 -4 -83 -8 -105 -3 -22 -3 -37 1 -33 14 12 26 142 17 173 -8 26 -9 20 -10 -35z"/> <path d="M2952 4176 c-46 -40 -151 -206 -129 -206 3 0 23 30 45 68 22 37 59 88 82 115 46 52 47 60 2 23z"/> <path d="M930 4180 c0 -5 9 -10 20 -10 11 0 20 5 20 10 0 6 -9 10 -20 10 -11 0 -20 -4 -20 -10z"/> <path d="M1155 4173 c4 -10 10 -26 12 -35 3 -10 11 -18 17 -18 6 0 28 -9 49 -19 30 -15 37 -16 37 -4 0 8 7 28 16 45 21 40 9 48 -75 48 -56 0 -62 -2 -56 -17z m95 -13 c5 0 8 -9 7 -19 -1 -11 -6 -17 -12 -13 -5 4 -12 7 -15 8 -3 0 -13 4 -23 9 -15 6 -16 10 -5 16 7 5 19 7 26 4 8 -3 17 -5 22 -5z"/> <path d="M911 4155 c-1 -42 44 -108 89 -134 40 -22 95 -28 105 -11 9 14 25 12 25 -3 0 -17 68 -123 101 -157 13 -14 40 -38 59 -53 32 -26 33 -28 10 -24 -14 3 -40 -2 -59 -12 l-35 -18 -15 30 c-24 46 -94 80 -156 75 -58 -5 -205 -73 -205 -94 0 -24 79 -102 124 -124 92 -44 208 -14 246 64 35 74 106 87 181 34 25 -18 74 -54 107 -79 l61 -47 -41 -5 c-22 -3 -50 -15 -62 -26 l-22 -20 -12 20 c-13 20 -69 49 -94 49 -7 -1 1 -8 17 -17 17 -9 36 -23 43 -32 8 -9 10 -10 6 -2 -5 10 -3 12 5 7 7 -4 11 -16 9 -25 -2 -10 2 -24 9 -32 9 -11 6 -23 -16 -54 -28 -42 -36 -45 -126 -46 -40 -1 -45 -2 -25 -9 90 -29 176 15 189 97 5 28 15 43 40 60 48 32 89 30 139 -9 l41 -31 -26 -14 c-14 -7 -32 -13 -39 -13 -8 0 -14 -4 -14 -10 0 -5 -11 -10 -25 -10 -18 0 -28 -7 -35 -25 -7 -17 -14 -23 -26 -18 -23 8 -34 -15 -22 -48 12 -35 38 -59 38 -35 0 9 -5 16 -11 16 -6 0 4 16 22 35 19 19 40 35 48 35 8 0 24 9 35 19 12 11 33 22 47 26 21 5 31 0 53 -25 20 -24 32 -31 49 -26 16 4 29 -1 40 -15 10 -11 22 -17 28 -14 9 6 47 -27 50 -44 6 -25 3 -61 -4 -61 -4 0 -6 -4 -2 -9 9 -16 -16 -58 -42 -70 -14 -7 -23 -14 -20 -17 15 -15 63 24 75 61 7 22 20 48 29 58 16 17 16 17 0 11 -13 -5 -17 -1 -17 18 0 27 -47 74 -69 70 -7 -2 -20 6 -28 17 -10 16 -21 19 -39 15 -16 -4 -24 -2 -25 7 -5 52 -18 79 -40 79 -11 0 -34 13 -52 30 -29 27 -32 35 -31 82 2 44 0 49 -8 28 -5 -14 -7 -38 -4 -53 l6 -28 -38 28 c-181 135 -206 167 -181 236 10 29 21 43 39 48 14 4 23 8 20 9 -23 8 -39 6 -44 -5 -4 -11 -14 -9 -45 8 -31 17 -44 32 -56 66 -8 24 -13 47 -10 50 2 4 -1 13 -6 21 -7 11 -9 -1 -6 -38 3 -41 11 -60 33 -83 16 -16 39 -32 52 -36 17 -4 21 -10 16 -22 -14 -32 -16 -82 -4 -96 41 -49 -73 35 -120 89 -14 15 -44 56 -67 90 -36 52 -40 63 -28 76 15 17 31 70 21 70 -4 0 -12 -13 -17 -30 -11 -31 -72 -76 -89 -65 -5 3 -20 8 -32 10 -21 4 -88 62 -86 74 1 3 -3 17 -9 31 -6 14 -13 32 -16 40 -3 8 -6 1 -6 -15z m149 -326 c0 18 72 -12 107 -45 7 -6 9 -14 6 -18 -4 -3 -1 -6 6 -6 7 0 9 -4 6 -10 -3 -5 -2 -10 4 -10 7 0 6 -10 -1 -30 -13 -39 -69 -82 -105 -82 -65 0 -112 6 -107 14 3 4 -1 5 -8 3 -18 -7 -101 64 -94 81 3 8 0 11 -10 7 -8 -3 -14 1 -14 9 0 13 54 48 75 49 6 0 17 6 25 13 25 22 73 34 93 24 10 -5 17 -5 17 1z m360 -299 c0 -5 -2 -10 -4 -10 -3 0 -8 5 -11 10 -3 6 -1 10 4 10 6 0 11 -4 11 -10z m280 -36 c0 -2 -9 0 -20 6 -11 6 -20 13 -20 16 0 2 9 0 20 -6 11 -6 20 -13 20 -16z m-200 -78 c0 -3 -4 -8 -10 -11 -5 -3 -10 -1 -10 4 0 6 5 11 10 11 6 0 10 -2 10 -4z"/> <path d="M1020 3804 c0 -7 9 -22 20 -35 10 -13 19 -19 20 -13 0 7 -9 22 -20 35 -10 13 -19 19 -20 13z"/> <path d="M1098 3780 c12 -21 18 -25 20 -14 4 16 -15 44 -29 44 -4 0 0 -13 9 -30z"/> <path d="M979 3776 c14 -14 27 -26 29 -26 10 0 -26 44 -39 48 -8 3 -3 -7 10 -22z"/> <path d="M919 3740 c31 -14 213 -29 224 -20 10 9 -46 17 -163 25 -64 4 -79 3 -61 -5z"/> <path d="M965 3690 c-10 -11 -13 -20 -8 -20 13 0 38 29 31 35 -3 3 -13 -4 -23 -15z"/> <path d="M1033 3698 c-19 -25 -24 -38 -15 -38 5 0 17 11 26 25 17 25 7 36 -11 13z"/> <path d="M1085 3690 c-10 -11 -15 -23 -12 -27 7 -6 36 25 37 40 0 11 -6 8 -25 -13z"/> <path d="M1105 4156 c-3 -9 -7 -23 -10 -31 -2 -8 -1 -15 4 -15 10 0 25 50 17 58 -3 2 -8 -3 -11 -12z"/> <path d="M1355 4060 c4 -58 11 -109 16 -115 6 -6 7 32 3 95 -4 58 -11 110 -16 115 -7 6 -8 -27 -3 -95z"/> <path d="M2186 4145 c-3 -9 -5 -31 -5 -48 1 -27 3 -24 9 13 8 48 6 61 -4 35z"/> <path d="M2418 4140 c-9 -6 -28 -31 -43 -58 l-26 -47 43 45 c39 41 47 45 88 43 106 -3 119 -31 51 -113 -52 -63 -59 -75 -33 -61 28 15 92 91 98 117 8 30 -12 63 -42 74 -32 13 -114 12 -136 0z"/> <path d="M975 4130 c-18 -8 -17 -9 8 -9 15 -1 27 4 27 9 0 12 -8 12 -35 0z"/> <path d="M2136 4080 c5 -60 10 -80 17 -69 1 2 -3 33 -10 69 l-12 65 5 -65z"/> <path d="M2230 4099 c-12 -22 -20 -47 -18 -54 2 -7 13 11 24 41 25 64 23 70 -6 13z"/> <path d="M2292 4099 c-25 -46 -27 -53 -12 -44 11 7 42 76 37 81 -2 2 -13 -15 -25 -37z"/> <path d="M1392 4118 c-7 -7 -12 -19 -12 -27 0 -11 5 -8 16 7 18 25 15 39 -4 20z"/> <path d="M1315 4100 c10 -11 20 -18 23 -15 7 6 -18 35 -31 35 -5 0 -2 -9 8 -20z"/> <path d="M3098 4110 c27 -11 30 -24 2 -15 -10 3 -31 0 -45 -7 -26 -14 -25 -14 17 -14 24 0 46 5 50 10 9 14 -10 36 -31 35 -11 0 -9 -3 7 -9z"/> <path d="M1003 4083 c9 -2 25 -2 35 0 9 3 1 5 -18 5 -19 0 -27 -2 -17 -5z"/> <path d="M1394 4068 l-19 -23 23 19 c21 18 27 26 19 26 -2 0 -12 -10 -23 -22z"/> <path d="M1961 4075 c9 -11 19 -27 22 -35 5 -13 6 -13 6 1 1 9 -9 24 -21 35 -23 19 -23 19 -7 -1z"/> <path d="M2403 4058 c-37 -42 -37 -54 0 -19 21 19 37 36 37 38 0 10 -19 0 -37 -19z"/> <path d="M1304 4055 c11 -8 25 -15 30 -15 6 0 2 7 -8 15 -11 8 -25 15 -30 15 -6 0 -2 -7 8 -15z"/> <path d="M2441 4044 c-17 -14 -31 -30 -31 -35 0 -6 10 -1 22 11 12 11 25 20 29 20 4 0 9 7 13 15 8 21 2 19 -33 -11z"/> <path d="M1405 4020 c-10 -11 -13 -20 -8 -20 13 0 38 29 31 35 -3 3 -13 -4 -23 -15z"/> <path d="M1893 4033 c9 -14 97 -75 96 -66 0 4 -23 23 -51 41 -27 19 -48 30 -45 25z"/> <path d="M1960 4015 c13 -14 26 -25 28 -25 3 0 -5 11 -18 25 -13 14 -26 25 -28 25 -3 0 5 -11 18 -25z"/> <path d="M2000 4022 c0 -12 19 -26 26 -19 2 2 -2 10 -11 17 -9 8 -15 8 -15 2z"/> <path d="M2242 4018 c-7 -7 -12 -18 -12 -25 0 -7 -4 -13 -9 -13 -12 0 7 -57 22 -67 7 -4 8 9 4 39 -5 33 -2 49 7 58 11 9 16 6 21 -11 7 -20 8 -20 17 -6 10 20 42 23 35 5 -2 -7 -9 -12 -14 -11 -5 1 -10 -7 -10 -18 -2 -18 0 -18 26 3 23 19 25 25 14 37 -8 8 -23 11 -38 7 -13 -3 -27 -2 -30 4 -8 13 -18 13 -33 -2z"/> <path d="M2996 3988 c-26 -22 -61 -66 -78 -96 -17 -30 -49 -67 -71 -83 -22 -16 -33 -29 -25 -29 27 0 81 49 118 107 20 32 58 77 83 101 60 54 35 55 -27 0z"/> <path d="M1304 4005 c11 -8 25 -15 30 -15 6 0 2 7 -8 15 -11 8 -25 15 -30 15 -6 0 -2 -7 8 -15z"/> <path d="M1660 4014 c0 -5 7 -19 15 -30 8 -10 15 -14 15 -8 0 5 -7 19 -15 30 -8 10 -15 14 -15 8z"/> <path d="M2477 4004 c-16 -9 -26 -18 -23 -21 3 -3 20 4 38 16 38 24 27 28 -15 5z"/> <path d="M2661 4000 c0 -14 4 -43 8 -65 l9 -40 0 45 c0 25 -3 54 -8 65 -8 18 -9 18 -9 -5z"/> <path d="M2122 3975 c-7 -14 -8 -25 -4 -25 12 0 32 39 23 44 -4 3 -13 -6 -19 -19z"/> <path d="M2158 3948 c-3 -15 -1 -28 4 -28 4 0 8 9 8 20 0 11 5 20 10 20 6 0 10 -7 10 -15 0 -8 5 -15 11 -15 6 0 8 7 5 16 -3 9 -6 19 -6 23 0 4 -9 7 -19 7 -14 0 -21 -9 -23 -28z"/> <path d="M2350 3960 c-6 -11 -15 -18 -20 -15 -4 3 -6 -4 -3 -15 5 -19 23 -19 23 1 0 13 26 39 39 39 13 0 24 -37 15 -51 -4 -8 -3 -9 4 -5 7 4 12 1 12 -8 0 -9 -9 -17 -22 -17 -13 -1 6 -5 42 -9 36 -4 85 -10 110 -15 25 -4 41 -4 37 1 -8 9 -17 11 -97 22 -43 6 -55 11 -54 25 1 9 -3 14 -9 10 -6 -4 -8 0 -4 9 7 19 -22 48 -46 48 -9 0 -21 -9 -27 -20z"/> <path d="M1641 3960 c-1 -18 16 -46 23 -40 2 3 -2 16 -9 30 -8 15 -14 19 -14 10z"/> <path d="M1868 3963 c6 -2 18 -2 25 0 6 3 1 5 -13 5 -14 0 -19 -2 -12 -5z"/> <path d="M2533 3948 c-67 -26 -59 -42 10 -21 73 21 72 21 70 -15 0 -19 3 -32 10 -29 16 5 25 40 16 65 -10 28 -36 28 -106 0z"/> <path d="M1911 3957 c15 -13 69 -34 69 -27 0 4 -14 13 -31 19 -32 11 -46 14 -38 8z"/> <path d="M2061 3954 c-1 -6 -11 -10 -23 -10 -18 1 -23 -5 -23 -24 0 -29 22 -36 48 -16 13 10 15 19 8 37 -5 13 -10 19 -10 13z m-8 -28 c3 -8 3 -17 0 -20 -7 -7 -33 13 -33 25 0 15 27 10 33 -5z"/> <path d="M2093 3942 c21 -23 22 -38 2 -46 -8 -3 -15 -13 -14 -23 0 -16 1 -16 9 2 5 11 9 16 9 11 1 -6 7 -1 15 9 12 17 12 22 -3 42 -9 12 -20 23 -25 23 -5 0 -2 -8 7 -18z"/> <path d="M2267 3941 c-4 -17 -3 -21 5 -13 5 5 8 16 6 23 -3 8 -7 3 -11 -10z"/> <path d="M2307 3923 c-10 -9 -9 -23 1 -23 5 0 9 7 9 15 0 17 -1 18 -10 8z"/> <path d="M1984 3909 c-3 -6 -1 -16 5 -22 8 -8 11 -5 11 11 0 24 -5 28 -16 11z"/> <path d="M2194 3907 c3 -10 6 -21 6 -23 0 -9 29 -3 36 8 5 7 3 8 -6 3 -8 -5 -19 -1 -28 11 -14 18 -14 18 -8 1z"/> <path d="M2343 3905 c-8 -9 -9 -16 -3 -20 6 -3 10 -1 10 4 0 6 6 11 14 11 21 0 28 16 8 17 -9 1 -23 -5 -29 -12z"/> <path d="M1610 3904 c0 -14 27 -50 33 -44 3 3 -3 16 -13 30 -11 14 -20 20 -20 14z"/> <path d="M1700 3899 c0 -5 5 -7 10 -4 6 3 10 8 10 11 0 2 -4 4 -10 4 -5 0 -10 -5 -10 -11z"/> <path d="M2277 3903 c-10 -9 -9 -23 1 -23 5 0 9 7 9 15 0 17 -1 18 -10 8z"/> <path d="M2548 3903 c6 -2 18 -2 25 0 6 3 1 5 -13 5 -14 0 -19 -2 -12 -5z"/> <path d="M2164 3888 c3 -15 26 -23 26 -8 0 6 -4 9 -9 6 -5 -4 -12 -1 -14 4 -3 6 -4 5 -3 -2z"/> <path d="M2245 3880 c-3 -5 -1 -10 4 -10 6 0 11 5 11 10 0 6 -2 10 -4 10 -3 0 -8 -4 -11 -10z"/> <path d="M2316 3875 c4 -8 11 -15 16 -15 6 0 5 6 -2 15 -7 8 -14 15 -16 15 -2 0 -1 -7 2 -15z"/> <path d="M2682 3870 c0 -14 2 -19 5 -12 2 6 2 18 0 25 -3 6 -5 1 -5 -13z"/> <path d="M2030 3869 c0 -5 5 -7 10 -4 6 3 10 8 10 11 0 2 -4 4 -10 4 -5 0 -10 -5 -10 -11z"/> <path d="M2125 3870 c3 -5 13 -10 21 -10 8 0 12 5 9 10 -3 6 -13 10 -21 10 -8 0 -12 -4 -9 -10z"/> <path d="M2215 3860 c3 -5 8 -10 11 -10 2 0 4 5 4 10 0 6 -5 10 -11 10 -5 0 -7 -4 -4 -10z"/> <path d="M1694 3845 c-10 -8 -14 -15 -7 -15 19 0 43 11 43 21 0 13 -14 11 -36 -6z"/> <path d="M2235 3843 c-20 -15 -20 -15 3 -8 16 5 22 2 22 -9 0 -20 34 -21 50 -1 9 10 9 15 1 15 -6 0 -11 -4 -11 -10 0 -18 -27 -11 -36 9 -8 18 -11 19 -29 4z"/> <path d="M2366 3781 c-9 -17 -16 -34 -15 -38 4 -21 -2 -32 -15 -27 -9 4 -18 -7 -26 -33 -7 -21 -15 -42 -19 -48 -3 -5 -4 -21 -3 -35 l3 -25 -14 26 c-13 23 -26 62 -33 97 -5 25 -14 26 -14 1 0 -14 5 -30 12 -37 9 -9 9 -12 0 -12 -9 0 -10 -5 -3 -19 6 -10 7 -22 3 -26 -4 -5 -2 -5 5 -2 6 4 15 -5 22 -23 12 -36 21 -37 51 -5 12 13 27 22 33 18 6 -4 7 -1 2 7 -6 10 -4 12 8 7 12 -4 43 19 108 80 90 86 122 126 98 121 -17 -4 -47 -31 -43 -39 6 -11 -136 -140 -147 -134 -11 8 -2 25 13 25 12 0 118 111 118 124 0 5 -31 -21 -70 -58 -49 -46 -75 -64 -87 -60 -11 4 -14 3 -7 -3 18 -13 12 -38 -14 -58 l-25 -18 7 24 c4 13 10 35 13 49 3 14 11 32 19 40 14 17 45 102 39 108 -2 2 -11 -10 -19 -27z"/> <path d="M2933 3803 c-7 -2 -13 -9 -13 -15 0 -14 43 -6 48 10 4 12 -12 15 -35 5z"/> <path d="M3245 3792 c-42 -9 -141 -44 -162 -58 -12 -8 -31 -14 -42 -14 -32 0 -68 -20 -82 -46 -9 -17 -21 -24 -43 -23 -41 0 -130 -18 -95 -20 14 0 48 -12 74 -26 62 -31 70 -25 13 10 -27 17 -34 24 -18 20 14 -4 50 -8 80 -9 70 -3 95 -17 110 -61 11 -34 10 -56 -6 -102 -4 -10 13 2 39 26 25 24 49 57 52 72 3 15 15 35 26 45 10 9 19 23 19 30 0 7 16 43 36 80 36 67 35 84 -1 76z m-17 -59 c-9 -10 -20 -31 -24 -48 -11 -46 -55 -110 -67 -99 -3 3 -3 -2 -1 -13 3 -10 -2 -27 -10 -38 -14 -19 -15 -19 -22 10 -4 17 -11 36 -17 43 -7 9 -3 20 16 40 37 39 34 48 -8 22 -30 -18 -39 -20 -75 -10 -22 6 -40 14 -40 18 0 17 26 32 56 32 18 0 34 5 36 10 5 15 152 68 162 59 6 -5 3 -16 -6 -26z"/> <path d="M1804 3753 c2 -16 6 -29 9 -31 4 -1 25 -21 47 -45 l41 -42 -41 59 c-22 33 -40 65 -40 73 0 7 -4 13 -9 13 -5 0 -8 -12 -7 -27z"/> <path d="M2252 3760 c0 -14 2 -19 5 -12 2 6 2 18 0 25 -3 6 -5 1 -5 -13z"/> <path d="M2275 3760 c3 -5 8 -10 11 -10 2 0 4 5 4 10 0 6 -5 10 -11 10 -5 0 -7 -4 -4 -10z"/> <path d="M2125 3747 c-12 -29 2 -61 55 -127 54 -68 65 -73 24 -11 -14 22 -36 66 -49 98 -18 42 -26 53 -30 40z"/> <path d="M2390 3725 c-18 -19 -31 -37 -29 -40 3 -2 23 13 44 35 22 22 35 40 29 40 -6 0 -25 -16 -44 -35z"/> <path d="M2019 3723 c13 -23 131 -149 131 -139 0 3 10 1 23 -5 12 -6 -16 27 -63 75 -82 83 -111 105 -91 69z"/> <path d="M1960 3716 c0 -32 70 -105 132 -137 51 -26 60 -24 17 5 -19 13 -60 50 -92 82 -31 32 -57 55 -57 50z"/> <path d="M2267 3714 c-3 -5 1 -15 9 -22 16 -14 18 -5 5 17 -5 7 -11 9 -14 5z"/> <path d="M2212 3655 c0 -11 3 -29 8 -40 11 -25 11 1 0 35 -6 20 -8 21 -8 5z"/> <path d="M1222 3605 c-64 -28 -130 -100 -132 -143 0 -13 42 -34 93 -46 47 -11 22 10 -28 24 -25 7 -48 17 -52 23 -3 6 -1 7 5 3 6 -3 14 -1 18 5 4 8 3 9 -4 5 -7 -4 -12 -1 -12 7 0 29 101 113 122 101 8 -4 10 -3 5 2 -5 5 7 14 30 21 30 9 33 12 13 12 -14 0 -40 -6 -58 -14z"/> <path d="M2968 3603 c12 -2 32 -2 45 0 12 2 2 4 -23 4 -25 0 -35 -2 -22 -4z"/> <path d="M1315 3570 c16 -16 33 -30 38 -30 4 0 -1 14 -13 30 -12 17 -29 30 -38 30 -12 0 -9 -8 13 -30z"/> <path d="M2328 3558 c-28 -10 -37 -31 -18 -43 15 -9 50 4 50 20 0 8 9 13 20 12 11 -1 20 -5 20 -9 0 -10 34 -11 43 -1 4 3 2 12 -4 20 -13 15 -71 16 -111 1z"/> <path d="M1259 3539 c13 -11 26 -17 29 -14 7 6 -29 34 -43 34 -5 0 1 -9 14 -20z"/> <path d="M1190 3541 c0 -10 30 -24 37 -17 3 2 -5 9 -16 16 -12 6 -21 7 -21 1z"/> <path d="M2112 3539 c-23 -4 -47 -11 -53 -15 -6 -4 -15 0 -20 7 -6 10 -9 11 -9 2 0 -7 -7 -13 -15 -13 -30 0 -92 -39 -99 -62 -18 -68 3 -128 39 -114 11 4 31 -10 60 -41 25 -26 42 -49 40 -52 -3 -2 -22 5 -43 16 -33 19 -40 20 -67 7 l-30 -13 37 5 c29 5 39 2 44 -10 3 -9 2 -22 -4 -29 -5 -6 -8 -20 -7 -30 2 -10 -3 -21 -11 -24 -12 -4 -12 -8 3 -18 28 -20 43 -9 30 24 -19 50 -4 65 57 58 51 -5 53 -5 48 18 -2 15 -9 22 -18 18 -8 -3 -11 -10 -8 -15 4 -6 1 -9 -7 -6 -8 3 -19 15 -26 29 -28 56 -43 93 -43 106 0 16 -12 17 -27 2 -17 -17 -27 9 -12 27 11 13 10 18 -4 25 -27 16 -20 26 23 33 23 4 38 11 35 16 -3 6 4 10 17 10 13 1 34 7 48 15 14 8 36 14 50 14 27 0 25 -2 -40 -29 -47 -20 -104 -55 -108 -67 -2 -7 4 -16 12 -19 19 -7 49 14 40 27 -3 5 -2 8 3 7 4 -1 18 3 29 10 12 6 24 9 27 6 9 -10 48 17 41 28 -4 6 -3 8 4 4 5 -3 12 0 15 6 2 7 7 11 10 8 8 -7 -16 -87 -38 -130 -14 -26 -14 -34 -3 -48 12 -15 11 -16 -4 -3 -21 16 -21 9 -4 -39 l13 -35 6 40 c4 22 18 53 32 69 23 27 35 86 17 86 -4 0 -8 9 -9 20 -2 27 12 17 27 -20 7 -16 15 -28 19 -26 4 3 7 -3 7 -12 1 -9 4 -39 8 -67 7 -50 7 -50 -28 -67 -25 -12 -34 -13 -30 -4 6 16 -22 41 -30 27 -4 -5 3 -26 13 -45 19 -33 19 -36 3 -45 -15 -8 -14 -12 11 -31 15 -12 27 -29 28 -38 0 -11 2 -12 6 -4 2 6 9 10 14 6 12 -7 12 -54 -1 -54 -5 0 -6 8 -3 18 7 16 6 16 -11 0 -9 -10 -23 -18 -29 -18 -6 0 -3 -8 6 -17 15 -15 19 -16 26 -4 6 9 18 11 39 6 38 -8 56 -28 47 -54 -10 -34 22 -14 34 20 9 26 8 28 -12 26 -18 -2 -22 3 -22 27 0 32 23 53 49 43 11 -4 16 -18 16 -42 0 -49 13 -71 51 -84 52 -18 57 -13 11 10 -45 22 -51 35 -55 109 -1 35 -6 46 -21 48 -11 3 -16 0 -12 -7 10 -15 -17 -14 -34 2 -12 10 -12 9 -2 -4 10 -13 9 -19 -2 -29 -9 -6 -20 -9 -26 -5 -16 10 -12 45 8 52 9 4 21 13 25 20 6 9 13 11 20 5 26 -20 63 -20 115 -2 40 14 59 17 74 9 10 -6 27 -9 38 -7 13 2 1 12 -37 30 -40 20 -51 23 -42 10 10 -12 7 -12 -9 2 -14 12 -37 20 -56 19 l-34 -1 16 28 c17 29 32 31 32 5 0 -8 9 -19 20 -25 20 -11 30 3 11 15 -5 3 -19 31 -31 61 l-21 56 22 36 21 36 -26 23 c-28 23 -50 22 -60 -4 -7 -18 10 -90 29 -119 12 -19 9 -28 -33 -94 l-46 -72 -18 22 c-10 12 -18 26 -18 31 0 5 19 29 43 54 25 26 37 45 29 45 -14 0 -46 -34 -69 -74 -10 -17 -11 -7 -7 59 3 44 7 86 10 93 2 7 -5 28 -16 47 -11 19 -15 34 -9 32 7 -1 13 3 15 8 5 13 -106 15 -164 4z m132 -40 c21 -20 27 -32 21 -45 -6 -18 -8 -17 -16 4 -5 13 -13 21 -19 17 -6 -3 -7 1 -4 9 4 11 0 16 -14 16 -11 0 -23 7 -26 15 -9 24 24 14 58 -16z m176 -37 c0 -15 -2 -15 -10 -2 -13 20 -13 33 0 25 6 -3 10 -14 10 -23z m-470 -54 c0 -6 7 -20 17 -30 15 -17 15 -18 -4 -18 -13 0 -23 8 -27 23 -9 33 -7 49 4 42 6 -3 10 -11 10 -17z m322 -153 c6 -14 15 -25 20 -25 19 0 6 -26 -19 -37 -47 -22 -94 -14 -72 13 7 8 7 14 -1 19 -17 11 -11 24 18 39 37 20 41 20 54 -9z m178 -25 c-37 -12 -112 -12 -105 0 3 6 34 10 68 9 46 -1 56 -3 37 -9z m-166 -149 c-8 -9 -22 12 -17 26 6 15 7 14 13 -3 4 -10 6 -21 4 -23z"/> <path d="M1285 3518 c-123 -23 -133 -27 -50 -23 44 2 91 7 103 11 24 7 24 7 8 -24 -18 -35 -19 -42 -8 -42 4 0 15 20 24 45 20 52 21 51 -77 33z"/> <path d="M2283 3503 c4 -29 18 -45 33 -39 9 3 14 -2 14 -14 0 -11 5 -20 12 -20 6 0 8 -3 4 -7 -4 -5 -14 1 -22 11 -7 11 -17 16 -21 13 -10 -11 32 -62 51 -62 21 0 22 4 9 41 -10 28 -64 94 -78 94 -3 0 -4 -8 -2 -17z"/> <path d="M3166 3495 c-41 -14 -63 -30 -77 -57 -7 -14 2 -11 38 12 50 32 81 37 115 19 21 -11 21 -12 -8 -24 l-29 -13 41 -1 c84 -2 115 -64 83 -167 -29 -94 -111 -164 -193 -164 -20 0 -36 -5 -36 -11 0 -20 95 -4 144 25 87 51 134 149 115 237 -10 44 -42 89 -64 89 -6 0 -17 10 -24 23 -18 34 -60 47 -105 32z"/> <path d="M1281 3464 c-13 -29 -6 -47 9 -24 9 14 14 50 7 50 -2 0 -9 -12 -16 -26z"/> <path d="M2535 3480 c3 -5 10 -10 16 -10 5 0 9 5 9 10 0 6 -7 10 -16 10 -8 0 -12 -4 -9 -10z"/> <path d="M1216 3454 c-9 -22 3 -32 14 -14 12 19 12 30 1 30 -5 0 -12 -7 -15 -16z"/> <path d="M2082 3448 c-7 -7 -12 -28 -12 -47 0 -33 -1 -33 -19 -17 -24 22 -38 4 -19 -23 9 -13 19 -17 28 -11 7 4 19 6 26 3 16 -6 28 54 17 85 -7 18 -11 20 -21 10z"/> <path d="M2800 3365 c0 -47 4 -85 8 -85 14 0 37 30 71 91 35 62 38 76 17 76 -14 0 -56 -81 -56 -106 0 -5 -5 -13 -10 -16 -7 -4 -8 7 -4 34 7 45 -1 91 -16 91 -6 0 -10 -36 -10 -85z"/> <path d="M919 3403 c-10 -11 -14 -47 -14 -117 0 -91 3 -107 28 -158 16 -32 33 -58 38 -58 5 0 9 -4 9 -10 0 -5 -37 9 -82 31 -62 31 -87 49 -99 73 -9 18 -25 32 -39 34 -20 3 -22 1 -16 -22 5 -19 3 -26 -9 -26 -8 0 -15 -9 -15 -20 0 -24 45 -38 70 -22 13 8 40 -2 123 -44 59 -29 107 -49 107 -44 0 6 -4 10 -9 10 -20 0 -93 182 -86 217 2 10 4 42 4 71 1 61 11 65 61 20 19 -17 28 -27 20 -24 -11 5 -10 4 2 -6 9 -8 27 -34 39 -58 30 -57 34 -177 7 -206 -9 -11 -17 -22 -17 -26 -1 -5 -1 -9 -2 -10 0 -2 -2 -18 -4 -37 -1 -18 -12 -45 -22 -59 -23 -31 -85 -82 -104 -86 -8 -2 -27 -8 -42 -15 -16 -6 -33 -8 -39 -5 -7 4 -8 2 -4 -4 5 -8 2 -10 -8 -6 -9 3 -16 15 -16 26 0 12 4 17 13 12 6 -4 9 -4 5 1 -10 11 46 89 85 119 17 13 48 31 67 39 21 9 28 16 17 16 -30 2 -90 -28 -125 -62 -34 -33 -84 -113 -97 -156 -7 -24 -7 -24 46 -18 108 13 220 96 235 174 3 18 10 35 14 38 4 3 54 -17 111 -44 l104 -48 -31 -16 c-41 -21 -102 -90 -125 -141 -10 -22 -19 -63 -19 -90 l0 -49 38 7 c20 3 43 6 51 6 8 0 11 6 7 15 -3 8 -1 15 3 15 5 0 7 10 4 21 -6 20 -3 21 23 15 16 -4 32 -12 35 -18 6 -9 84 65 102 97 6 11 16 10 54 -7 34 -15 59 -19 97 -15 45 4 57 1 109 -31 31 -19 57 -35 57 -36 0 -1 -26 -1 -58 -1 -68 0 -149 -36 -205 -90 -32 -31 -37 -33 -37 -15 0 11 -4 20 -9 20 -6 0 -7 -17 -4 -37 l6 -38 -53 58 c-29 32 -55 55 -58 53 -2 -3 18 -31 47 -61 41 -46 50 -61 45 -81 -4 -14 -2 -24 5 -24 6 0 11 6 11 13 0 16 20 -13 20 -30 0 -6 -18 -26 -41 -44 -35 -28 -42 -30 -55 -17 -13 13 -13 18 0 43 8 16 12 33 9 39 -4 6 -11 -5 -16 -23 -12 -47 -27 -26 -20 27 4 32 9 42 20 38 8 -4 19 -6 24 -6 4 0 6 -7 3 -15 -4 -8 -2 -15 4 -15 15 0 23 30 9 35 -45 17 -61 10 -74 -29 -9 -27 -10 -43 -3 -50 5 -5 10 -13 10 -17 0 -8 -40 -22 -55 -19 -6 1 -5 -4 1 -10 9 -9 17 -8 32 1 18 11 24 10 41 -6 21 -18 21 -18 -37 -79 -31 -34 -72 -78 -90 -99 -27 -32 -38 -38 -58 -33 -17 5 -24 13 -24 29 0 13 -7 32 -16 43 -15 19 -16 19 -9 -1 20 -56 20 -58 -6 -45 -13 7 -40 26 -59 42 -39 32 -47 34 -47 14 0 -8 5 -12 12 -10 6 3 22 -7 35 -21 l24 -25 -32 -12 c-18 -7 -32 -16 -32 -20 0 -8 48 8 65 22 6 5 16 5 23 1 10 -6 10 -11 -3 -21 -8 -7 -15 -17 -15 -22 0 -6 8 -1 18 11 15 19 20 20 48 9 l32 -12 -24 -35 c-16 -24 -40 -42 -71 -55 -59 -23 -73 -34 -73 -54 0 -14 2 -14 13 1 11 16 87 60 87 51 0 -2 -4 -12 -9 -22 -6 -9 -12 -28 -15 -42 -3 -14 -12 -34 -19 -45 -13 -16 -17 -17 -31 -6 -9 7 -16 10 -16 6 0 -15 54 -54 64 -47 7 4 4 8 -6 10 -18 3 -26 22 -10 22 11 0 32 45 32 68 0 10 23 48 52 86 l52 67 15 -25 c16 -26 31 -34 31 -17 0 5 -4 11 -9 13 -5 2 -12 14 -15 28 -5 21 7 39 74 110 l79 85 1 -48 c0 -28 -7 -58 -16 -72 -9 -14 -14 -34 -11 -45 6 -22 -8 -28 -16 -7 -3 6 -6 8 -6 2 0 -5 4 -17 9 -25 9 -13 11 -13 20 0 5 8 8 21 5 28 -8 22 16 61 34 54 14 -5 14 -3 3 11 -10 11 -11 24 -5 43 8 25 10 25 25 10 18 -18 28 -20 28 -7 0 5 -14 14 -31 21 -38 16 -36 44 8 77 l31 24 16 -54 c21 -74 20 -92 -9 -135 -14 -20 -25 -41 -25 -47 0 -5 -7 -23 -15 -38 -8 -15 -10 -25 -4 -21 6 3 21 31 35 62 18 41 27 53 34 43 6 -10 8 -8 9 10 0 13 1 38 1 56 1 17 -6 52 -14 78 -9 26 -14 51 -10 56 6 11 79 49 93 49 13 0 -24 -83 -40 -89 -7 -2 -9 1 -5 8 5 7 1 9 -9 4 -12 -4 -13 -8 -5 -13 7 -4 10 -13 6 -19 -5 -7 -1 -9 8 -5 9 3 16 1 16 -5 0 -6 5 -11 12 -11 9 0 9 3 0 12 -17 17 -15 31 2 25 10 -4 13 -1 10 8 -3 8 -2 19 2 26 4 8 14 -4 25 -32 22 -55 25 -30 3 28 -19 50 -11 68 37 78 16 4 31 11 34 16 4 5 42 9 86 9 69 0 79 -2 78 -17 0 -10 -21 -31 -47 -48 -41 -27 -122 -117 -122 -138 0 -34 168 -33 237 1 42 20 81 19 95 -1 4 -7 17 -6 37 3 47 19 48 31 3 24 -52 -8 -59 6 -22 46 17 18 30 36 30 42 0 5 18 -5 40 -23 22 -18 37 -36 34 -41 -4 -5 -22 5 -42 24 -35 33 -36 21 0 -18 18 -20 18 -21 -7 -58 -14 -20 -25 -38 -25 -40 0 -2 -7 -20 -15 -40 -14 -33 -17 -35 -31 -21 -8 8 -19 15 -24 15 -4 0 -13 13 -18 29 -8 22 -7 32 5 44 14 14 14 15 -1 13 -29 -4 -39 -23 -32 -60 4 -20 10 -35 14 -35 19 3 33 -3 61 -27 l31 -26 36 21 c19 12 44 21 54 21 29 0 106 36 121 57 8 10 31 27 51 36 20 10 40 27 43 38 6 17 14 20 53 17 l46 -3 16 -55 c20 -66 33 -93 71 -141 30 -38 29 -49 -6 -49 -11 0 -25 -4 -30 -9 -6 -5 -29 -11 -53 -15 -34 -5 -42 -4 -36 6 6 10 4 10 -7 2 -8 -6 -34 -10 -59 -8 -71 5 -69 4 -204 55 -85 33 -112 33 -48 0 99 -51 146 -63 257 -68 94 -4 119 -2 173 16 l63 21 45 -26 c49 -29 63 -24 64 21 0 17 2 17 10 5 7 -11 10 -6 10 20 0 23 -3 30 -9 22 -6 -10 -10 -8 -14 9 -4 15 0 30 10 41 17 19 58 24 68 8 3 -5 15 -10 26 -10 10 0 19 -6 19 -14 0 -8 26 -31 58 -52 31 -21 72 -53 90 -71 18 -18 37 -33 43 -33 15 0 2 55 -30 126 -49 106 -163 196 -290 228 l-43 12 66 23 66 23 21 -26 c25 -32 71 -57 124 -67 92 -18 138 -36 157 -63 11 -15 37 -35 58 -46 21 -10 40 -26 44 -35 3 -8 25 -24 50 -34 34 -15 50 -31 72 -70 16 -28 34 -49 39 -47 15 5 8 101 -9 133 -49 93 -191 219 -233 208 -19 -4 -31 2 -53 25 -37 39 -124 58 -181 40 -20 -7 -52 -10 -70 -8 -18 3 -47 2 -64 -2 -84 -22 -85 -22 -85 1 0 16 4 19 18 14 26 -11 37 -11 40 0 4 13 -40 24 -54 13 -16 -12 -81 51 -96 93 -13 37 -13 44 1 44 18 0 24 15 11 30 -10 12 2 37 74 151 47 75 84 140 81 144 -3 4 2 10 10 14 23 8 18 -12 -15 -71 -17 -30 -28 -59 -24 -65 4 -6 3 -8 -3 -5 -6 4 -29 -24 -53 -63 -23 -39 -46 -73 -51 -76 -5 -3 -9 -10 -9 -15 0 -6 10 -3 22 5 24 17 73 21 82 8 3 -5 20 -10 38 -11 56 -4 73 -7 87 -16 9 -5 12 -4 7 3 -12 19 15 25 55 12 24 -8 50 -27 66 -49 15 -20 31 -39 35 -42 5 -3 -2 -18 -14 -34 -22 -28 -10 -27 25 3 25 22 21 45 -13 66 l-31 18 28 32 c15 18 50 45 76 61 72 44 61 60 -41 60 -67 0 -87 -4 -99 -17 -9 -10 -22 -18 -30 -18 -8 0 -25 -12 -39 -27 -23 -25 -33 -28 -90 -28 -35 0 -64 1 -64 1 0 1 7 15 15 30 8 16 15 38 15 50 0 11 11 34 24 52 16 23 25 51 29 98 5 49 16 83 41 130 24 43 32 66 24 70 -6 4 -8 3 -5 -3 4 -6 0 -16 -8 -23 -8 -6 -28 -36 -44 -65 -22 -39 -47 -65 -88 -92 -42 -28 -64 -52 -84 -90 -25 -47 -28 -50 -41 -35 -12 15 -12 25 1 74 l16 56 28 -14 c16 -9 27 -10 27 -4 0 5 -5 10 -11 10 -6 0 -30 20 -55 45 -24 25 -52 45 -63 45 -11 0 -27 10 -35 22 -9 12 -19 18 -23 14 -4 -4 -1 -13 7 -19 9 -7 17 -25 18 -41 1 -16 3 -30 5 -31 1 -1 13 5 27 13 23 13 24 13 2 9 -23 -5 -31 8 -9 16 16 5 47 -3 47 -13 0 -5 7 -16 16 -24 14 -14 13 -18 -6 -38 -24 -26 -35 -61 -26 -83 7 -18 -2 -19 -34 0 -14 8 -44 14 -66 15 -25 0 -47 6 -54 15 -11 13 -15 13 -21 3 -7 -10 -9 -10 -9 2 0 9 -9 15 -24 15 l-25 0 21 -22 c12 -13 20 -24 17 -26 -2 -2 -21 -14 -43 -27 -21 -13 -51 -43 -66 -66 -26 -42 -28 -43 -44 -26 -21 25 -20 34 10 93 24 48 24 52 9 69 -19 21 -17 61 4 68 9 3 11 0 6 -8 -5 -8 -3 -11 5 -8 8 2 16 10 18 18 3 7 0 10 -7 6 -6 -4 -11 -3 -11 3 0 6 -11 5 -30 -2 -16 -6 -25 -14 -19 -18 6 -3 9 -12 8 -20 -2 -8 2 -23 8 -35 10 -17 8 -29 -12 -69 -14 -26 -22 -51 -19 -56 8 -14 -3 -11 -46 11 -38 19 -39 21 -23 40 17 19 17 19 40 -2 23 -21 23 -21 23 -1 0 12 -7 24 -15 27 -13 5 -14 10 -5 26 24 46 2 40 -35 -9 -22 -28 -43 -51 -47 -51 -9 0 -84 93 -91 112 -3 10 -7 10 -17 1 -42 -39 120 -200 178 -178 8 3 27 -8 43 -25 33 -34 37 -35 59 -15 14 13 16 12 17 -6 1 -13 -3 -19 -11 -16 -8 3 -12 -3 -12 -17 1 -16 -4 -20 -22 -19 -34 4 -62 -14 -61 -40 1 -13 3 -16 5 -7 6 19 54 43 54 27 0 -6 3 -8 6 -5 3 4 20 0 39 -7 18 -8 35 -11 39 -8 3 4 6 2 6 -4 0 -5 6 -10 13 -11 6 -1 26 -4 44 -8 30 -6 32 -4 39 31 5 26 3 40 -7 45 -10 7 -10 12 2 26 13 16 12 17 -14 10 -18 -4 -38 -1 -60 11 -17 9 -35 16 -39 15 -20 -5 -6 49 16 63 41 27 78 16 100 -30 11 -21 21 -34 23 -28 7 19 -26 73 -50 83 -12 5 -17 9 -10 9 23 2 63 -22 63 -38 1 -12 3 -11 12 4 6 11 20 28 32 38 11 10 14 15 6 11 -8 -4 -23 -14 -32 -22 -11 -9 -18 -11 -18 -4 0 21 53 40 80 30 47 -17 54 -60 15 -102 -27 -29 -57 -37 -34 -9 8 9 9 14 3 10 -17 -10 -36 17 -28 39 5 13 4 16 -3 9 -6 -5 -13 -23 -17 -38 -6 -25 -4 -28 13 -22 16 5 19 2 16 -14 -4 -24 -1 -25 25 -11 28 15 70 1 82 -26 9 -19 7 -31 -8 -59 -21 -40 -24 -41 -64 -20 -31 16 -42 39 -13 28 11 -4 14 -3 9 5 -4 7 -2 12 5 12 7 0 4 7 -7 16 -18 14 -17 15 19 12 45 -5 50 8 5 15 -41 6 -56 -6 -37 -29 12 -16 12 -17 -3 -11 -27 10 -30 -7 -7 -54 11 -24 18 -34 16 -21 -3 13 -1 22 5 20 5 -2 9 -7 9 -11 -1 -4 -1 -15 -1 -24 -1 -43 -16 -45 -54 -7 -31 31 -36 41 -27 58 8 18 10 18 10 4 1 -10 6 -18 12 -18 6 0 8 7 5 16 -3 9 -6 18 -6 20 0 2 -4 4 -10 4 -13 0 -41 -56 -32 -64 3 -4 -2 -4 -13 -1 -11 3 -4 -2 15 -12 28 -15 35 -24 36 -50 1 -18 -1 -33 -5 -33 -12 0 -28 15 -34 33 -3 9 -12 17 -18 17 -8 0 -8 -4 1 -15 15 -18 9 -19 -25 -3 -14 6 -25 19 -25 30 0 10 -4 18 -10 18 -5 0 -7 -7 -3 -16 5 -14 3 -14 -16 -3 -11 8 -21 19 -21 26 0 6 -5 15 -12 19 -7 4 -8 3 -4 -4 9 -16 -7 -15 -22 0 -19 19 -14 -3 6 -25 16 -19 16 -19 -8 -13 -21 5 -22 5 -5 -3 11 -5 32 -12 48 -15 15 -4 27 -11 27 -17 0 -6 -9 -8 -21 -4 -15 5 -19 4 -15 -4 4 -6 24 -11 44 -11 20 0 44 -5 52 -10 12 -8 10 -10 -10 -10 -18 0 -21 -3 -11 -9 7 -5 25 -4 42 2 21 9 32 8 41 -1 9 -9 7 -12 -10 -12 -12 0 -22 -4 -22 -10 0 -5 2 -10 5 -10 4 0 56 21 63 26 2 1 -3 15 -12 32 -18 35 -11 47 18 27 28 -20 33 -19 39 8 7 27 57 96 57 78 0 -7 -14 -39 -30 -70 -30 -56 -35 -101 -11 -109 8 -3 10 8 5 37 -4 28 -3 41 5 41 6 0 11 -15 11 -33 0 -31 4 -35 39 -46 49 -14 97 -67 112 -123 6 -24 17 -50 25 -59 16 -18 7 -34 -11 -19 -8 7 -11 -3 -11 -35 -1 -24 3 -42 7 -40 4 3 5 -4 2 -15 -6 -24 -23 -36 -32 -24 -3 5 -23 17 -44 27 -24 10 -35 22 -31 29 4 6 3 8 -3 5 -5 -3 -16 2 -24 11 -53 62 -89 164 -70 200 8 14 7 24 -4 38 -13 16 -14 17 -9 2 3 -10 3 -26 -1 -35 -7 -16 -9 -14 -14 7 -4 15 -15 26 -26 27 -16 1 -17 1 -2 -3 41 -13 11 -24 -56 -21 -54 3 -84 10 -117 28 -47 25 -99 91 -100 123 0 16 -3 17 -12 8 -10 -10 -8 -27 5 -78 10 -37 16 -68 14 -71 -3 -2 -20 10 -38 27 -31 28 -32 32 -16 41 9 6 17 18 17 27 0 12 -8 8 -29 -16 -31 -33 -45 -39 -56 -22 -3 6 -11 10 -16 10 -6 0 -4 -7 5 -15 13 -13 12 -18 -7 -39 -15 -17 -24 -21 -29 -13 -5 7 -8 3 -8 -11 0 -13 -4 -20 -10 -17 -5 3 -10 2 -10 -3 0 -27 -198 -64 -229 -44 -19 13 0 46 58 100 36 34 47 40 49 27 2 -9 -10 -31 -27 -47 -18 -17 -30 -36 -28 -42 7 -19 109 -13 140 8 22 15 25 21 16 33 -10 11 -6 20 16 43 16 17 36 30 45 30 21 0 66 38 57 47 -4 3 -16 -2 -26 -11 -11 -10 -24 -15 -29 -12 -6 3 -22 -8 -36 -25 -14 -16 -30 -27 -36 -24 -6 4 -10 3 -9 -2 3 -19 -2 -34 -10 -29 -5 3 -11 0 -14 -8 -4 -10 1 -12 16 -9 l22 6 -20 -21 c-22 -22 -82 -36 -103 -23 -9 6 -8 12 8 26 11 10 20 13 20 7 0 -7 8 -12 18 -12 12 0 14 2 4 8 -10 7 -10 20 2 70 8 34 12 62 9 62 -3 0 1 7 8 16 7 9 14 23 15 31 5 33 27 73 40 73 8 0 14 4 14 9 0 14 29 21 36 9 5 -7 2 -8 -6 -3 -9 5 -11 4 -6 -4 4 -6 12 -9 17 -5 5 3 6 10 3 16 -5 7 -1 9 9 5 10 -3 17 -2 17 3 0 5 8 6 18 3 15 -6 15 -5 4 10 -15 17 -9 37 11 37 7 0 6 -4 -3 -10 -11 -7 -12 -10 -2 -10 7 0 20 7 28 15 14 13 13 15 -8 15 -13 0 -29 5 -35 11 -8 8 -13 5 -18 -10 -3 -11 -4 -25 0 -30 10 -17 -12 -21 -25 -5 -12 13 -17 11 -47 -18 -25 -24 -33 -28 -33 -15 0 9 5 17 10 17 6 0 10 37 10 90 0 96 -9 114 -26 50 -6 -22 -7 -37 -3 -34 5 3 9 -2 9 -10 0 -9 -5 -16 -11 -16 -7 0 -10 -24 -9 -67 1 -38 2 -71 1 -74 -1 -3 -16 8 -35 24 -33 30 -34 32 -15 45 10 7 24 22 30 34 10 18 6 17 -29 -8 -22 -16 -38 -32 -36 -35 2 -4 -3 -12 -11 -19 -8 -7 -15 -21 -15 -30 0 -10 -12 -32 -26 -49 -14 -17 -21 -31 -15 -31 6 0 25 22 43 49 l33 49 32 -27 c30 -25 32 -30 22 -57 -11 -29 -12 -29 -78 -24 -56 4 -80 0 -158 -26 -62 -21 -95 -28 -105 -22 -10 8 -9 8 5 4 9 -3 17 -1 17 5 0 6 5 7 12 3 7 -4 8 -3 4 4 -4 7 4 14 21 18 104 23 153 47 172 83 14 26 2 33 -58 34 -72 1 -169 -64 -131 -88 6 -4 8 -11 4 -16 -3 -5 -9 -7 -14 -4 -4 3 -11 -2 -14 -11 -4 -9 -9 -14 -13 -10 -3 3 -16 -2 -27 -11 l-21 -18 20 23 c12 14 15 26 9 30 -5 4 -11 18 -11 30 -1 17 2 22 13 18 8 -3 25 4 37 15 38 36 99 61 156 65 60 4 80 15 64 36 -5 7 -10 26 -11 43 -1 16 -8 35 -15 42 -15 15 -60 26 -52 13 11 -19 -93 -29 -162 -16 -40 7 -60 26 -28 26 8 0 39 20 69 45 46 37 63 45 98 45 32 0 49 6 69 26 34 33 55 27 76 -23 l15 -38 26 58 c27 60 43 73 40 32 -1 -14 -5 -25 -9 -25 -4 0 -9 -10 -12 -22 -6 -21 -5 -21 17 3 13 13 24 26 24 29 0 22 4 30 17 30 9 0 18 6 21 14 3 8 13 12 25 9 10 -3 19 0 19 6 0 9 -13 13 -36 10 -4 0 -10 5 -15 12 -4 8 -11 10 -16 6 -4 -5 -1 -12 7 -18 13 -8 13 -10 0 -19 -26 -17 -40 -11 -54 20 l-12 30 -13 -65 c-7 -36 -17 -67 -21 -70 -11 -7 -22 24 -13 37 3 6 1 8 -4 5 -6 -4 -16 0 -23 8 -13 16 -36 10 -67 -18 -18 -16 -36 -20 -82 -19 -53 0 -62 -3 -87 -29 -24 -25 -25 -29 -9 -24 20 6 20 6 1 -9 -10 -8 -22 -13 -26 -11 -4 3 -13 -2 -20 -10 -7 -8 -22 -15 -34 -15 -17 0 -18 -2 -6 -10 13 -8 13 -10 -1 -10 -9 0 -33 -18 -52 -39 -45 -50 -75 -67 -90 -52 -8 8 -8 11 1 11 13 0 102 78 102 89 0 3 -12 14 -26 24 -24 18 -25 18 -59 -3 -66 -41 -110 -120 -73 -132 8 -3 4 -12 -10 -26 -35 -35 -48 -28 -44 23 2 25 8 45 14 45 5 0 6 4 3 10 -7 11 4 26 50 74 42 43 83 76 95 76 17 0 11 18 -12 34 -18 13 -19 18 -8 31 11 13 10 14 -5 9 -13 -5 -16 -3 -13 7 3 8 -3 29 -14 47 -12 19 -18 43 -15 57 2 14 0 25 -4 25 -14 0 -10 42 5 72 9 18 11 28 4 30 -13 5 7 48 22 48 5 0 7 6 4 14 -4 10 0 13 14 9 17 -4 18 -10 12 -40 -5 -20 -13 -40 -19 -46 -30 -30 10 -80 99 -121 34 -16 47 -26 35 -27 -11 -1 -2 -5 20 -9 22 -5 50 -6 63 -3 12 3 22 0 22 -6 0 -6 7 -8 15 -4 22 8 19 9 -70 33 -81 22 -168 69 -179 96 -3 9 1 25 9 37 8 12 15 29 15 39 0 17 30 48 76 82 10 8 16 18 12 22 -4 4 -14 2 -21 -4 -10 -9 -14 -8 -14 2 0 8 15 23 33 32 27 15 37 16 60 6 38 -18 41 -8 6 17 -38 27 -72 27 -79 1 -3 -11 -14 -20 -24 -20 -17 0 -24 -11 -20 -34 3 -18 -11 -46 -24 -46 -8 0 -21 9 -29 21 -21 30 -33 17 -57 -63 -27 -88 -21 -179 15 -249 l24 -47 -57 27 c-31 15 -71 34 -88 41 -36 14 -39 20 -20 38 7 8 12 43 12 95 0 66 -5 91 -24 131 -27 54 -69 106 -111 136 -26 18 -29 18 -41 3z m-132 -258 c0 -8 -8 -15 -18 -15 -12 0 -16 6 -12 19 6 22 30 18 30 -4z m1834 -239 c-6 -8 -21 -16 -32 -19 -24 -6 -19 1 13 19 31 16 32 16 19 0z m-1116 -36 c-10 -11 -21 -17 -24 -14 -3 3 3 12 13 20 28 20 32 17 11 -6z m1063 -47 c-11 -18 -25 -30 -31 -26 -6 3 -7 1 -3 -5 9 -15 -18 -55 -38 -58 -11 -2 -9 7 8 34 13 21 30 49 39 63 8 14 22 26 30 26 12 0 11 -7 -5 -34z m-278 -13 c0 -5 -7 -7 -15 -4 -8 4 -12 10 -9 15 6 11 24 2 24 -11z m-986 -25 c6 -17 -30 -50 -76 -70 -46 -18 -54 -19 -39 -2 6 8 7 18 3 22 -4 5 -1 5 6 1 7 -4 12 -2 12 5 0 17 62 68 77 62 6 -2 14 -10 17 -18z m351 -73 c-2 -2 -18 7 -35 20 l-32 23 29 5 c23 5 29 1 35 -19 4 -14 6 -27 3 -29z m355 22 c0 -2 -9 0 -20 6 -11 6 -20 13 -20 16 0 2 9 0 20 -6 11 -6 20 -13 20 -16z m458 -1 c-17 -41 -22 -44 -47 -35 -20 7 -21 9 -7 21 14 11 16 11 16 -3 0 -10 5 -14 11 -11 6 4 8 13 5 20 -2 7 1 18 7 24 20 20 27 12 15 -16z m118 -9 c-1 -26 -46 -70 -46 -45 0 10 39 71 45 71 1 0 2 -12 1 -26z m349 -3 c6 -1 -6 -11 -25 -22 -19 -12 -39 -28 -43 -35 -5 -8 -13 -12 -18 -8 -5 3 -8 1 -7 -4 5 -16 -4 -16 -44 -3 -25 8 -35 17 -31 27 3 8 11 14 18 14 6 0 19 8 29 18 15 17 54 21 121 13z m-749 -48 c-7 -7 -26 7 -26 19 0 6 6 6 15 -2 9 -7 13 -15 11 -17z m64 -20 c0 -20 -61 -53 -94 -51 -28 3 -30 6 -17 26 11 18 111 41 111 25z m20 -35 c0 -7 -5 -20 -10 -28 -7 -11 -12 -12 -21 -3 -6 6 -19 9 -28 6 -12 -3 -12 -1 3 11 10 8 22 13 27 11 4 -3 10 -1 14 5 8 14 15 13 15 -2z m-627 -14 c10 -10 -17 -44 -35 -44 -9 0 -18 -4 -20 -10 -1 -5 -22 -12 -45 -16 -36 -5 -41 -4 -39 11 1 9 9 21 17 26 8 5 10 9 4 9 -5 1 4 7 20 15 31 14 87 19 98 9z m855 -124 c47 -47 66 -102 34 -95 -50 9 -79 34 -86 72 -12 78 -6 80 52 23z m-1094 18 c-3 -4 -9 -8 -15 -8 -5 0 -9 4 -9 8 0 5 7 9 15 9 8 0 12 -4 9 -9z m36 -45 c0 -1 -9 -7 -20 -13 -15 -8 -20 -8 -20 3 0 7 9 13 20 13 11 0 20 -1 20 -3z m1451 -43 c9 -5 19 -6 23 -3 3 3 6 1 6 -5 0 -7 7 -12 15 -12 8 0 15 -4 15 -9 0 -9 27 -22 56 -27 30 -5 54 -16 54 -25 0 -5 5 -9 11 -9 15 0 99 -84 99 -99 0 -6 4 -11 9 -11 13 0 39 -44 46 -76 3 -16 2 -22 -2 -14 -7 17 -35 38 -78 60 -16 8 -30 22 -30 30 0 8 -4 15 -10 16 -30 2 -72 32 -123 87 -9 9 -29 17 -44 17 -15 0 -42 6 -60 14 -18 8 -50 18 -70 21 -21 3 -45 13 -54 22 -15 15 -14 17 8 29 24 13 99 10 129 -6z m-781 -5 c0 -8 -7 -15 -15 -15 -9 0 -12 6 -9 15 4 8 10 15 15 15 5 0 9 -7 9 -15z m69 -40 c28 -14 56 -23 61 -20 4 3 6 -4 3 -14 -3 -11 -18 -25 -33 -31 -15 -6 -38 -22 -51 -36 -12 -13 -28 -24 -36 -24 -7 0 -13 -4 -13 -10 0 -5 -11 -10 -25 -10 -14 0 -25 -4 -25 -8 0 -5 -13 -7 -30 -6 -17 1 -28 -3 -27 -9 1 -6 -6 -13 -15 -15 -14 -3 -17 3 -16 25 1 15 7 33 13 39 26 30 41 50 41 59 1 6 11 15 22 21 12 6 31 23 42 37 12 15 25 27 29 27 4 0 31 -11 60 -25z m445 -34 c3 -4 19 -11 36 -15 21 -4 29 -10 24 -17 -4 -7 -3 -9 3 -6 25 16 129 -73 167 -143 32 -58 26 -81 -10 -45 -14 14 -29 25 -34 25 -4 0 -27 17 -49 39 -37 35 -70 52 -113 56 -31 4 -48 14 -48 30 0 9 -7 29 -15 44 -8 16 -11 31 -8 35 9 9 41 7 47 -3z"/> <path d="M2570 3398 c0 -29 22 -88 46 -123 14 -21 23 -39 21 -41 -7 -7 -96 76 -102 96 -4 11 -11 20 -16 20 -15 0 16 -52 53 -87 33 -32 75 -53 105 -53 13 0 13 3 3 15 -7 8 -16 13 -20 10 -4 -3 -7 1 -7 8 1 12 -72 167 -79 167 -2 0 -4 -6 -4 -12z"/> <path d="M1578 3388 c5 -7 18 -39 27 -70 19 -66 27 -75 20 -23 -5 43 -33 105 -47 105 -7 0 -7 -4 0 -12z"/> <path d="M2922 3375 c-15 -32 -15 -36 0 -32 13 2 48 40 48 52 0 4 -8 1 -17 -6 -11 -10 -14 -10 -9 -1 4 6 3 12 -2 12 -5 0 -14 -11 -20 -25z"/> <path d="M2693 3360 c2 -19 7 -44 12 -55 5 -14 -1 -10 -19 10 -16 19 -25 24 -25 15 0 -23 37 -63 50 -54 7 4 9 3 6 -2 -7 -12 10 -41 19 -32 6 6 -16 84 -37 133 -7 15 -8 12 -6 -15z"/> <path d="M2881 3345 c-12 -26 -21 -51 -21 -56 0 -21 32 -2 60 34 11 15 11 18 -1 15 -8 -2 -19 -10 -26 -18 -17 -21 -16 -5 3 31 8 17 13 33 11 36 -3 2 -15 -17 -26 -42z"/> <path d="M3069 3340 c-40 -27 -79 -50 -86 -50 -7 0 -13 -5 -13 -11 0 -31 163 50 177 88 11 28 -5 22 -78 -27z"/> <path d="M2200 3356 c0 -2 7 -9 15 -16 13 -11 14 -10 9 4 -5 14 -24 23 -24 12z"/> <path d="M2974 3350 c-24 -9 -78 -70 -69 -78 3 -4 9 -2 13 3 15 22 74 65 82 60 5 -3 12 0 16 6 4 7 3 9 -4 5 -5 -3 -12 -2 -14 3 -1 5 -12 5 -24 1z"/> <path d="M1695 3313 c-3 -21 -10 -46 -16 -55 -5 -10 -9 -23 -9 -30 1 -7 7 -1 15 13 15 28 31 109 22 109 -3 0 -9 -17 -12 -37z"/> <path d="M1410 3332 c0 -14 26 -22 70 -22 32 0 43 -6 74 -45 40 -48 72 -64 36 -17 -11 15 -29 38 -39 51 -13 18 -28 25 -57 26 -21 0 -49 5 -61 9 -13 4 -23 3 -23 -2z"/> <path d="M1657 3327 c-4 -10 -7 -26 -7 -35 1 -15 2 -15 11 1 6 10 9 25 7 35 -3 16 -4 15 -11 -1z"/> <path d="M2736 3307 c3 -10 9 -15 12 -12 3 3 0 11 -7 18 -10 9 -11 8 -5 -6z"/> <path d="M1741 3281 c-8 -17 -11 -34 -8 -38 8 -7 29 46 24 60 -2 6 -9 -4 -16 -22z"/> <path d="M3067 3283 c-22 -15 -34 -29 -29 -31 17 -5 72 27 72 43 0 19 1 20 -43 -12z"/> <path d="M2775 3280 c-4 -6 -11 -8 -16 -5 -5 4 -9 2 -9 -3 0 -5 12 -9 28 -9 15 0 21 2 14 4 -6 3 -10 9 -6 14 3 5 3 9 0 9 -3 0 -8 -5 -11 -10z"/> <path d="M1771 3252 c-8 -18 -20 -32 -28 -32 -8 0 -24 -11 -36 -24 -23 -24 -49 -23 -55 3 -2 11 0 12 11 3 11 -9 19 -6 37 13 13 14 19 25 13 25 -6 0 -16 -6 -23 -14 -18 -23 -42 -9 -29 16 6 11 8 22 5 25 -5 6 -19 -24 -29 -62 -4 -17 -5 -16 -7 5 -1 21 -4 19 -16 -15 -7 -23 -11 -28 -9 -12 7 36 -3 34 -19 -4 l-13 -31 -12 33 c-11 31 -13 32 -23 15 -7 -13 -7 -26 2 -44 12 -27 12 -27 -9 -8 -12 11 -21 25 -21 33 0 7 -4 13 -9 13 -5 0 -12 17 -17 38 -4 20 -9 30 -11 20 -6 -24 36 -116 60 -133 19 -14 19 -14 -6 -21 -32 -7 -27 -24 6 -17 18 4 19 3 7 -6 -8 -6 -24 -11 -35 -11 -33 0 5 -30 45 -35 18 -3 38 -9 43 -14 13 -13 -1 -31 -18 -24 -8 3 -15 1 -15 -5 0 -6 -3 -18 -6 -26 -5 -12 -2 -15 12 -10 11 4 25 14 33 23 10 12 15 13 18 4 3 -7 18 -13 35 -13 30 0 31 0 13 20 -12 13 -14 20 -5 20 9 0 10 3 1 14 -13 15 -4 49 10 40 5 -3 9 -2 8 3 -5 30 3 53 19 53 13 0 14 -2 3 -9 -9 -6 -10 -10 -2 -12 17 -6 3 -37 -20 -44 -27 -9 -24 -22 10 -39 35 -19 47 -10 24 17 -17 20 -17 20 0 14 25 -9 84 20 104 50 24 36 57 27 63 -17 3 -23 8 -31 13 -22 5 7 5 21 2 32 -7 23 7 27 24 6 9 -10 8 -16 -3 -25 -30 -25 9 -60 45 -41 20 11 28 -3 9 -15 -5 -3 -10 -14 -9 -23 0 -12 3 -10 10 6 5 13 13 20 19 17 13 -8 13 -35 0 -35 -5 0 -10 -5 -10 -11 0 -8 5 -8 15 1 13 10 15 9 15 -8 0 -12 -5 -24 -11 -28 -8 -4 -7 -9 2 -15 24 -15 31 -10 25 16 -3 14 -9 37 -12 51 -5 19 -3 25 4 20 7 -4 21 -2 32 4 21 11 55 1 48 -16 -1 -5 8 -10 22 -12 l25 -3 -28 26 c-31 27 -56 32 -75 13 -27 -27 -11 15 18 49 34 39 38 53 13 54 -12 0 -14 2 -5 6 7 3 23 -4 35 -14 29 -27 52 -40 43 -25 -4 7 -2 12 4 12 6 0 1 10 -10 23 -16 16 -20 30 -16 54 4 29 2 32 -17 29 -12 -1 -20 -7 -17 -12 3 -5 8 -8 13 -6 11 3 8 -23 -5 -36 -7 -7 -21 -12 -31 -12 -16 0 -18 -5 -12 -27 5 -23 4 -25 -9 -14 -8 7 -20 10 -25 6 -7 -3 -8 0 -5 9 3 9 2 16 -4 16 -6 0 -13 -6 -15 -12 -4 -8 -6 -7 -6 3 -1 9 -12 24 -26 33 -23 15 -27 15 -62 -2 -21 -10 -46 -17 -55 -15 -11 3 -22 -4 -28 -19 -13 -27 -53 -48 -89 -47 -15 0 -21 3 -15 5 7 3 10 14 7 24 -4 13 7 30 33 55 37 34 38 37 21 50 -17 13 -18 15 -2 39 9 14 15 31 13 37 -2 7 -10 -2 -17 -19z m-14 -75 c1 -15 -1 -28 -5 -28 -51 -9 -71 7 -33 27 29 15 40 27 17 18 -14 -5 -17 -4 -12 5 12 19 31 7 33 -22z m-107 -31 c0 -7 -11 -16 -25 -18 -28 -6 -30 -3 -12 17 16 18 37 19 37 1z m35 -10 c12 -12 12 -15 1 -19 -16 -7 -26 1 -26 20 0 17 8 17 25 -1z m339 -53 c10 4 19 1 23 -9 8 -20 -17 -36 -34 -22 -9 7 -13 7 -13 0 0 -6 6 -12 13 -15 9 -4 9 -7 -1 -18 -11 -11 -14 -10 -18 9 -7 23 -19 29 -29 12 -8 -13 -45 -13 -45 0 0 5 9 14 21 21 l21 11 -21 14 c-23 17 -28 50 -8 57 6 3 26 -11 43 -30 22 -25 37 -34 48 -30z m101 31 l17 -27 -25 19 c-14 11 -23 22 -20 27 7 11 9 9 28 -19z m-496 2 c34 -1 51 -31 29 -53 -24 -23 -72 -3 -63 27 4 11 2 20 -4 20 -10 0 -15 -14 -12 -32 0 -5 -4 -8 -9 -8 -13 0 -9 30 5 46 6 7 14 9 20 6 5 -3 20 -6 34 -6z m-34 -66 c4 -6 11 -8 16 -5 5 4 9 1 9 -5 0 -6 5 -8 10 -5 6 3 10 1 10 -4 0 -14 -6 -14 -39 3 -15 8 -39 13 -52 10 -21 -4 -22 -3 -4 5 27 13 43 13 50 1z m45 -62 c0 -6 -6 -5 -15 2 -8 7 -15 14 -15 16 0 2 7 1 15 -2 8 -4 15 -11 15 -16z"/> <path d="M1960 3100 c0 -5 5 -10 11 -10 5 0 7 5 4 10 -3 6 -8 10 -11 10 -2 0 -4 -4 -4 -10z"/> <path d="M969 3243 c-20 -54 23 -188 59 -181 43 8 36 124 -11 184 -24 31 -35 30 -48 -3z m33 -10 c1 -4 8 -13 16 -19 16 -11 31 -134 17 -134 -33 0 -69 121 -47 163 4 9 13 3 14 -10z"/> <path d="M2862 3261 c-11 -7 -11 -9 2 -14 10 -4 16 -1 16 8 0 17 -1 17 -18 6z"/> <path d="M2807 3253 c-9 -2 -15 -9 -12 -14 9 -14 22 -11 29 6 3 8 4 14 3 14 -1 -1 -10 -3 -20 -6z"/> <path d="M2920 3250 c0 -5 4 -10 9 -10 6 0 13 5 16 10 3 6 -1 10 -9 10 -9 0 -16 -4 -16 -10z"/> <path d="M2965 3250 c3 -5 8 -10 11 -10 2 0 4 5 4 10 0 6 -5 10 -11 10 -5 0 -7 -4 -4 -10z"/> <path d="M3069 3241 c-13 -11 -21 -22 -17 -26 8 -8 58 23 58 36 0 14 -16 10 -41 -10z"/> <path d="M610 3230 c0 -5 7 -10 15 -10 8 0 15 5 15 10 0 6 -7 10 -15 10 -8 0 -15 -4 -15 -10z"/> <path d="M666 3233 c-11 -11 -7 -20 9 -20 8 0 15 4 15 8 0 11 -16 20 -24 12z"/> <path d="M2130 3230 c0 -5 5 -10 10 -10 6 0 10 5 10 10 0 6 -4 10 -10 10 -5 0 -10 -4 -10 -10z"/> <path d="M710 3220 c0 -5 7 -10 16 -10 8 0 12 5 9 10 -3 6 -10 10 -16 10 -5 0 -9 -4 -9 -10z"/> <path d="M2870 3215 c-5 -6 7 -10 36 -11 24 0 44 3 44 9 0 5 -7 7 -15 3 -8 -3 -15 -2 -15 2 0 12 -40 9 -50 -3z"/> <path d="M3103 3211 c-23 -11 -53 -18 -67 -17 -28 3 -35 -8 -11 -18 8 -3 15 0 15 7 0 9 2 9 8 0 13 -21 122 13 122 38 0 14 -21 10 -67 -10z"/> <path d="M2065 3210 c-7 -12 2 -12 30 0 19 8 19 9 -2 9 -12 1 -25 -3 -28 -9z"/> <path d="M1571 3194 c0 -11 3 -14 6 -6 3 7 2 16 -1 19 -3 4 -6 -2 -5 -13z"/> <path d="M2790 3198 c0 -13 8 -18 30 -18 17 0 30 -5 30 -11 0 -6 -9 -8 -22 -4 -23 7 -23 7 -3 -9 19 -15 45 -23 32 -9 -4 3 -2 12 4 20 9 9 8 13 0 13 -6 0 -11 8 -11 18 0 9 -4 13 -8 7 -11 -16 -34 -17 -43 -3 -7 10 -9 9 -9 -4z"/> <path d="M2965 3200 c-3 -5 -2 -10 4 -10 5 0 13 5 16 10 3 6 2 10 -4 10 -5 0 -13 -4 -16 -10z"/> <path d="M3155 3179 c-33 -16 -68 -28 -77 -25 -18 4 -20 -14 -3 -26 6 -4 37 -7 70 -6 33 0 50 3 38 5 -27 5 -31 23 -5 23 10 0 27 7 38 15 22 17 12 20 -19 4 -21 -10 -21 -10 -3 5 11 9 23 16 28 16 4 0 8 5 8 10 0 14 -8 12 -75 -21z m-5 -29 c0 -5 -8 -10 -17 -10 -15 0 -16 2 -3 10 19 12 20 12 20 0z"/> <path d="M642 3189 c2 -7 10 -15 17 -17 8 -3 12 1 9 9 -2 7 -10 15 -17 17 -8 3 -12 -1 -9 -9z"/> <path d="M690 3185 c0 -8 5 -15 10 -15 6 0 10 7 10 15 0 8 -4 15 -10 15 -5 0 -10 -7 -10 -15z"/> <path d="M1420 3189 c0 -10 68 -79 77 -79 7 0 -13 24 -49 61 -16 15 -28 23 -28 18z"/> <path d="M2750 3185 c0 -16 16 -20 24 -6 3 5 -1 11 -9 15 -9 3 -15 0 -15 -9z"/> <path d="M2695 3180 c-3 -5 -2 -10 4 -10 5 0 13 5 16 10 3 6 2 10 -4 10 -5 0 -13 -4 -16 -10z"/> <path d="M2877 3170 c-6 -23 8 -37 17 -18 5 11 7 11 12 0 3 -6 10 -9 16 -6 6 4 9 1 6 -7 -3 -10 -18 -13 -46 -11 -26 2 -42 -2 -42 -9 0 -6 7 -8 16 -5 8 3 24 1 35 -5 17 -9 24 -6 40 13 10 13 24 29 30 36 6 7 8 16 5 19 -3 4 -12 -1 -19 -11 -12 -16 -14 -16 -36 3 -29 25 -28 25 -34 1z"/> <path d="M2150 3168 c0 -7 5 -20 11 -28 8 -12 9 -10 4 9 -5 17 -4 22 5 16 9 -5 11 -4 6 3 -10 16 -26 15 -26 0z"/> <path d="M2505 3160 c3 -5 42 -10 86 -10 46 0 79 4 79 10 0 6 -35 10 -86 10 -54 0 -83 -4 -79 -10z"/> <path d="M672 3146 c1 -10 8 -17 13 -17 15 1 12 24 -3 29 -9 3 -13 -2 -10 -12z"/> <path d="M1768 3140 c-10 -10 -13 -22 -9 -25 8 -5 20 6 35 33 11 19 -8 14 -26 -8z"/> <path d="M3034 3151 c4 -6 -1 -14 -13 -19 l-21 -7 22 -14 c18 -11 20 -11 15 2 -3 8 -1 19 5 25 6 6 6 12 -3 17 -8 5 -10 4 -5 -4z"/> <path d="M2543 3127 c-4 -6 13 -8 46 -5 42 4 49 3 40 -8 -6 -8 -24 -14 -40 -14 -16 0 -29 -5 -29 -11 0 -7 9 -9 23 -6 12 3 40 9 62 13 32 6 36 9 20 15 -18 7 -18 8 -2 8 10 1 16 5 12 10 -7 13 -124 11 -132 -2z"/> <path d="M2748 3133 c7 -3 16 -2 19 1 4 3 -2 6 -13 5 -11 0 -14 -3 -6 -6z"/> <path d="M1391 3114 c13 -16 47 -32 83 -40 28 -5 13 5 -45 32 -38 18 -48 20 -38 8z"/> <path d="M2800 3122 c0 -5 7 -9 15 -9 8 0 15 4 15 9 0 4 -7 8 -15 8 -8 0 -15 -4 -15 -8z"/> <path d="M1771 3103 c-7 -12 -10 -14 -11 -4 0 11 -3 11 -15 1 -22 -18 -3 -35 22 -21 11 5 25 17 33 25 10 13 10 16 -3 16 -9 0 -21 -8 -26 -17z"/> <path d="M2696 3111 c-3 -5 1 -11 9 -14 9 -4 12 -1 8 9 -6 16 -10 17 -17 5z"/> <path d="M2755 3110 c-3 -5 1 -10 9 -10 9 0 16 5 16 10 0 6 -4 10 -9 10 -6 0 -13 -4 -16 -10z"/> <path d="M1251 3084 c1 -41 11 -59 34 -60 11 0 35 -3 53 -7 39 -8 46 17 7 27 -13 3 -40 20 -60 37 l-35 31 1 -28z"/> <path d="M2317 3093 c-4 -3 -7 -11 -7 -17 0 -6 5 -5 12 2 6 6 9 14 7 17 -3 3 -9 2 -12 -2z"/> <path d="M2984 3089 c-3 -6 6 -23 21 -39 16 -17 24 -33 20 -41 -5 -7 -4 -10 2 -6 5 3 17 -3 27 -14 10 -12 20 -18 23 -16 6 7 -57 97 -69 97 -4 0 -8 6 -8 13 1 6 25 -15 55 -48 30 -33 55 -55 55 -49 0 17 -90 114 -105 114 -8 0 -17 -5 -21 -11z"/> <path d="M3084 3071 c17 -17 34 -31 39 -31 14 0 -23 39 -48 52 -14 8 -12 2 9 -21z"/> <path d="M2605 3060 c-33 -16 -71 -29 -85 -30 -18 0 -21 -3 -11 -9 11 -7 11 -10 0 -15 -8 -3 2 -3 21 0 19 4 52 15 72 25 44 22 52 23 42 7 -4 -7 -4 -10 0 -6 4 3 8 10 8 15 -1 4 7 16 15 26 22 23 9 20 -62 -13z"/> <path d="M2800 3080 c0 -5 5 -10 11 -10 5 0 7 5 4 10 -3 6 -8 10 -11 10 -2 0 -4 -4 -4 -10z"/> <path d="M2857 3069 c-4 -16 -3 -18 9 -8 7 6 11 15 8 20 -8 13 -11 11 -17 -12z"/> <path d="M2896 3072 c-2 -4 11 -26 29 -47 19 -22 34 -35 35 -30 0 6 -13 24 -30 41 -16 18 -26 35 -23 38 4 3 4 6 0 6 -3 0 -8 -4 -11 -8z"/> <path d="M1825 3051 c4 -14 0 -21 -12 -24 -10 -3 -3 -5 15 -6 32 -1 32 -1 16 24 -19 30 -28 32 -19 6z"/> <path d="M2090 3050 c0 -11 2 -20 4 -20 2 0 6 9 9 20 3 11 1 20 -4 20 -5 0 -9 -9 -9 -20z"/> <path d="M2940 3062 c0 -10 43 -52 53 -52 4 0 -2 14 -15 30 -21 29 -38 39 -38 22z"/> <path d="M1850 3050 c0 -5 5 -10 10 -10 6 0 10 5 10 10 0 6 -4 10 -10 10 -5 0 -10 -4 -10 -10z"/> <path d="M2158 3024 c4 -29 6 -34 14 -20 5 9 6 25 3 36 -11 33 -21 22 -17 -16z"/> <path d="M2738 3029 c-10 -17 -18 -35 -18 -40 0 -17 21 2 31 28 5 14 12 23 15 20 3 -3 -1 -20 -10 -39 -15 -32 -35 -109 -36 -135 0 -7 5 -13 10 -13 6 0 10 6 10 13 0 24 44 180 48 168 2 -7 -1 -32 -7 -56 -7 -27 -8 -53 -2 -67 8 -20 9 -17 15 22 14 109 13 118 -9 124 -29 8 -28 9 -47 -25z"/> <path d="M2816 3019 c-8 -52 0 -63 13 -18 8 30 9 26 10 -38 1 -41 6 -75 12 -79 8 -5 9 11 5 57 -14 127 -28 155 -40 78z"/> <path d="M3142 3055 c2 -5 12 -27 23 -48 l19 -37 -30 -43 c-16 -23 -54 -57 -84 -75 -54 -33 -56 -34 -153 -29 -77 3 -101 8 -118 23 -22 19 -22 19 -14 -5 7 -23 6 -24 -44 -19 -40 4 -49 2 -41 -7 16 -19 57 -24 85 -9 18 9 34 10 57 3 48 -13 138 -11 191 5 59 18 97 45 131 95 32 46 31 88 -5 131 -11 14 -19 21 -17 15z"/> <path d="M2195 3040 c-4 -6 -3 -9 2 -8 4 1 22 -11 40 -28 30 -29 30 -31 12 -42 -26 -16 -34 -15 -19 3 9 10 9 15 1 15 -6 0 -11 -4 -11 -10 0 -5 -8 -10 -17 -11 -16 0 -16 -1 1 -8 10 -4 25 -20 32 -37 13 -26 14 -27 9 -4 -5 29 1 40 34 58 21 12 23 12 18 -2 -4 -10 -1 -13 9 -9 21 8 17 33 -6 33 -31 0 -68 21 -73 41 -6 21 -22 25 -32 9z"/> <path d="M2881 3033 c24 -30 29 -37 44 -58 7 -11 16 -17 19 -14 8 7 -53 89 -66 89 -6 0 -4 -8 3 -17z"/> <path d="M2645 3015 c-16 -13 -25 -24 -19 -25 6 0 21 11 34 25 30 32 24 32 -15 0z"/> <path d="M1875 3020 c-3 -5 -1 -10 4 -10 6 0 11 5 11 10 0 6 -2 10 -4 10 -3 0 -8 -4 -11 -10z"/> <path d="M2130 3021 c0 -5 5 -13 10 -16 6 -3 10 -2 10 4 0 5 -4 13 -10 16 -5 3 -10 2 -10 -4z"/> <path d="M2866 3010 c8 -33 23 -60 24 -42 0 7 5 10 12 6 7 -5 8 -3 4 5 -5 7 -11 10 -14 6 -3 -3 -12 7 -19 22 -12 26 -12 26 -7 3z"/> <path d="M1531 2999 c-13 -10 -18 -19 -12 -19 7 0 9 -4 6 -10 -3 -5 -2 -10 3 -10 10 0 38 48 31 54 -2 2 -15 -4 -28 -15z"/> <path d="M1280 3000 c0 -5 9 -15 20 -22 11 -7 20 -23 20 -36 0 -27 36 -102 50 -102 5 0 -2 19 -15 43 -14 23 -25 51 -25 62 -1 30 -50 84 -50 55z"/> <path d="M1918 2997 c6 -7 8 -24 5 -38 -4 -19 -3 -22 7 -12 15 13 6 63 -11 63 -8 0 -8 -4 -1 -13z"/> <path d="M2187 3004 c-6 -10 9 -42 16 -34 3 3 1 14 -3 24 -3 11 -9 15 -13 10z"/> <path d="M1675 2990 c3 -5 11 -10 16 -10 6 0 7 5 4 10 -3 6 -11 10 -16 10 -6 0 -7 -4 -4 -10z"/> <path d="M2982 2980 c7 -11 17 -20 22 -20 5 0 1 9 -9 20 -10 11 -20 20 -22 20 -2 0 2 -9 9 -20z"/> <path d="M960 2972 c-40 -22 -88 -98 -72 -114 16 -16 89 28 118 72 39 58 19 76 -46 42z m45 -12 c9 -14 -63 -80 -86 -80 -16 0 -16 3 -4 26 12 24 60 64 77 64 4 0 10 -5 13 -10z"/> <path d="M1377 2978 c2 -5 19 -8 38 -8 19 0 36 3 38 8 3 4 -14 7 -38 7 -24 0 -41 -3 -38 -7z"/> <path d="M2340 2979 c0 -5 5 -7 10 -4 6 3 10 8 10 11 0 2 -4 4 -10 4 -5 0 -10 -5 -10 -11z"/> <path d="M1440 2959 c-14 -6 -35 -8 -47 -6 -13 2 -23 0 -23 -6 0 -13 88 -3 103 12 13 13 1 13 -33 0z"/> <path d="M2150 2960 c0 -5 5 -10 10 -10 6 0 10 5 10 10 0 6 -4 10 -10 10 -5 0 -10 -4 -10 -10z"/> <path d="M2348 2921 c2 -21 -1 -42 -7 -45 -6 -4 -11 -12 -11 -18 0 -7 6 -6 15 2 8 7 15 24 15 38 l0 25 25 -23 c39 -36 39 -17 1 23 -19 21 -36 37 -38 37 -2 0 -2 -17 0 -39z"/> <path d="M1844 2935 c-15 -11 -16 -15 -4 -16 8 -1 29 -2 47 -4 17 -1 48 -15 70 -31 26 -20 33 -23 23 -9 -8 11 -21 25 -29 31 -9 7 -11 16 -6 25 8 12 6 12 -8 0 -14 -11 -21 -11 -42 3 -29 19 -27 19 -51 1z"/> <path d="M2163 2927 c-18 -10 -20 -15 -9 -29 7 -10 19 -18 27 -18 10 1 9 4 -3 11 -10 5 -18 15 -18 22 0 7 4 6 10 -3 8 -12 10 -12 15 2 4 10 13 14 22 11 11 -4 14 -2 9 5 -9 15 -25 15 -53 -1z"/> <path d="M1650 2876 c0 -3 12 -12 28 -20 15 -8 20 -15 13 -16 -11 0 -12 -3 -4 -11 6 -6 16 -8 22 -5 22 14 15 22 -51 54 -5 2 -8 1 -8 -2z"/> <path d="M2137 2866 c-4 -10 -1 -13 8 -9 8 3 12 9 9 14 -7 12 -11 11 -17 -5z"/> <path d="M1621 2857 c2 -1 13 -9 24 -17 19 -14 19 -14 6 3 -7 9 -18 17 -24 17 -6 0 -8 -1 -6 -3z"/> <path d="M1748 2823 c-42 -33 -48 -43 -48 -76 0 -78 66 -46 90 44 19 69 11 76 -42 32z m24 -31 c-7 -2 -12 -14 -12 -27 0 -14 -9 -29 -20 -35 -17 -9 -20 -7 -26 15 -4 14 -5 27 -3 29 2 1 17 12 34 25 21 16 31 19 34 10 2 -7 -1 -15 -7 -17z"/> <path d="M3149 2835 c-1 -8 -3 -19 -4 -25 -1 -5 -3 -14 -4 -19 0 -5 -21 -38 -46 -75 -25 -36 -42 -66 -37 -66 22 0 117 154 106 172 -4 7 -2 8 4 4 7 -4 12 -1 12 8 0 20 -30 21 -31 1z"/> <path d="M3410 2824 c-12 -22 -12 -27 0 -34 9 -6 16 -6 18 0 5 15 23 12 44 -7 11 -9 18 -11 18 -5 0 7 8 12 18 12 15 -1 15 -2 -3 -18 -12 -10 -19 -25 -17 -37 4 -16 2 -17 -11 -7 -13 11 -15 10 -10 -7 4 -16 11 -19 29 -15 18 5 24 2 24 -9 0 -9 -5 -19 -12 -23 -7 -4 -8 -3 -4 4 4 7 4 12 -1 12 -4 0 -14 -13 -21 -28 -12 -28 -48 -42 -38 -15 3 7 -1 13 -9 13 -11 0 -12 -6 -6 -22 5 -13 13 -23 20 -22 6 1 18 2 27 3 8 0 13 5 10 10 -3 5 1 11 9 15 8 3 15 0 15 -7 0 -7 9 -20 20 -30 11 -9 20 -12 20 -7 0 6 9 10 20 10 22 0 27 -28 10 -60 -7 -14 -5 -19 10 -23 13 -3 20 0 20 10 0 9 -5 11 -12 7 -9 -5 -9 -2 1 9 17 21 44 22 61 2 17 -21 -4 -45 -39 -45 l-26 -1 28 -20 c18 -14 25 -25 19 -33 -10 -13 -12 -46 -2 -46 12 0 30 24 30 41 0 9 -7 22 -15 29 -13 11 -12 14 7 29 31 26 18 71 -21 71 -20 0 -31 7 -40 26 -10 23 -16 26 -45 21 -28 -4 -35 -2 -39 14 -3 12 0 22 9 26 21 8 17 44 -6 50 -24 6 -25 19 -5 40 23 22 14 47 -17 51 -16 2 -28 11 -31 23 -7 27 -41 24 -57 -7z m50 -8 c0 -2 -9 -6 -20 -9 -11 -3 -20 -1 -20 4 0 5 9 9 20 9 11 0 20 -2 20 -4z"/> <path d="M1565 2811 c-44 -21 -36 -27 14 -10 17 6 31 15 31 20 0 11 2 12 -45 -10z"/> <path d="M3021 2791 c-9 -6 -10 -11 -2 -15 6 -4 11 -33 12 -64 0 -51 2 -54 11 -29 14 38 -2 120 -21 108z"/> <path d="M3380 2779 c0 -5 4 -8 9 -5 5 4 11 0 14 -6 2 -7 8 -9 13 -5 5 4 2 12 -6 17 -20 13 -30 12 -30 -1z"/> <path d="M3315 2735 c-22 -24 -45 -45 -52 -45 -19 0 -26 -20 -13 -35 7 -9 10 -28 7 -44 -3 -16 -1 -33 6 -40 9 -10 4 -19 -23 -41 -19 -16 -45 -30 -57 -30 -37 0 -36 -19 2 -26 35 -6 50 -1 50 16 0 13 44 70 54 70 5 0 8 -12 6 -26 -1 -17 1 -22 8 -15 15 15 0 61 -18 55 -21 -8 -19 24 2 48 16 18 16 18 0 12 -13 -5 -17 0 -17 21 0 20 4 26 15 21 11 -4 15 2 15 21 0 14 3 23 7 20 3 -4 13 -1 22 7 20 18 39 21 74 12 29 -9 35 -28 15 -50 -11 -12 -16 -12 -29 0 -15 13 -17 13 -22 0 -4 -9 -3 -15 1 -15 20 3 33 -2 27 -11 -3 -5 -2 -10 3 -10 6 0 12 7 16 15 3 8 12 15 19 15 9 0 14 10 13 29 -1 16 -2 28 -4 26 -2 -2 -18 3 -37 10 -18 8 -36 11 -40 7 -5 -4 -5 1 -2 11 11 29 -6 19 -48 -28z"/> <path d="M3435 2771 c-6 -11 9 -23 19 -14 9 9 7 23 -3 23 -6 0 -12 -4 -16 -9z"/> <path d="M2230 2709 l25 -20 -25 6 c-19 5 -21 4 -9 -4 8 -6 26 -7 38 -4 21 5 21 6 -9 24 -40 25 -51 24 -20 -2z"/> <path d="M3370 2719 c0 -5 5 -7 10 -4 6 3 10 8 10 11 0 2 -4 4 -10 4 -5 0 -10 -5 -10 -11z"/> <path d="M3326 2692 c-3 -6 -1 -14 5 -17 14 -9 20 -2 10 14 -6 8 -11 9 -15 3z"/> <path d="M2030 2669 c0 -5 9 -9 20 -9 11 0 20 2 20 4 0 2 -9 6 -20 9 -11 3 -20 1 -20 -4z"/> <path d="M3460 2669 c0 -5 5 -7 10 -4 6 3 10 8 10 11 0 2 -4 4 -10 4 -5 0 -10 -5 -10 -11z"/> <path d="M2300 2660 c0 -5 5 -10 10 -10 6 0 10 5 10 10 0 6 -4 10 -10 10 -5 0 -10 -4 -10 -10z"/> <path d="M2974 2635 c-9 -14 -14 -34 -11 -45 4 -15 0 -20 -14 -20 -10 0 -19 -4 -19 -9 0 -5 9 -7 20 -4 10 3 35 -4 54 -16 25 -16 35 -18 38 -9 4 10 9 10 23 -2 17 -13 18 -13 13 1 -9 24 36 69 62 62 50 -13 37 -83 -15 -83 -13 0 -27 -4 -30 -10 -8 -13 16 -13 52 1 33 12 43 26 43 60 0 37 -23 53 -65 46 -26 -4 -35 -2 -35 9 0 8 -4 14 -10 14 -5 0 -10 -18 -10 -40 0 -22 -4 -40 -10 -40 -5 0 -10 6 -10 13 0 6 -7 3 -16 -8 -15 -20 -16 -20 -40 8 -20 24 -22 32 -12 50 6 12 18 27 27 34 14 11 14 12 -1 13 -10 0 -25 -11 -34 -25z"/> <path d="M3310 2650 c0 -5 5 -10 10 -10 6 0 10 -12 10 -26 0 -14 -4 -23 -10 -19 -5 3 -10 1 -10 -4 0 -16 20 -13 26 4 8 20 -4 65 -16 65 -6 0 -10 -4 -10 -10z"/> <path d="M1354 2621 c5 -8 1 -11 -16 -8 -12 2 -17 2 -10 0 6 -3 12 -9 12 -14 0 -14 17 -10 23 6 4 8 1 17 -5 21 -7 4 -8 3 -4 -5z"/> <path d="M3390 2611 c0 -5 9 -15 20 -22 19 -13 20 -16 5 -36 -10 -14 -21 -20 -32 -16 -11 4 -14 3 -9 -5 11 -18 34 -14 56 8 26 26 25 38 -5 52 -13 6 -22 15 -19 19 3 5 0 9 -5 9 -6 0 -11 -4 -11 -9z"/> <path d="M3493 2598 c-4 -7 -6 -20 -5 -28 1 -8 -8 -20 -20 -25 -52 -23 -21 -88 39 -82 18 2 33 7 33 10 0 4 0 12 0 18 0 5 -10 3 -22 -5 -32 -23 -47 -20 -54 11 -10 37 20 59 52 38 20 -13 22 -12 27 5 6 22 -8 37 -16 18 -8 -20 -28 13 -21 35 6 20 -1 23 -13 5z"/> <path d="M2510 2591 c0 -3 12 -19 26 -36 15 -17 23 -22 20 -12 -7 22 22 24 30 2 4 -9 16 -21 28 -27 21 -11 21 -11 2 11 -28 31 4 29 42 -4 35 -30 52 -33 28 -6 -17 19 -17 19 6 14 12 -3 37 -11 55 -19 36 -16 57 -18 48 -4 -3 6 -15 10 -25 10 -32 0 -30 15 2 17 16 0 35 6 41 13 9 10 6 11 -15 8 -28 -5 -39 6 -15 15 8 4 9 6 0 6 -6 1 -18 -6 -27 -14 -8 -8 -25 -15 -37 -15 -22 0 -22 0 -3 16 19 15 19 16 -1 8 -11 -4 -33 -9 -49 -12 -24 -4 -28 -2 -23 11 5 14 2 15 -20 6 -14 -5 -35 -6 -47 -3 -21 7 -21 7 -1 15 14 5 8 7 -22 7 -24 -1 -43 -4 -43 -7z"/> <path d="M3026 2583 c-6 -14 -5 -15 5 -6 7 7 10 15 7 18 -3 3 -9 -2 -12 -12z"/> <path d="M3355 2589 c-4 -6 -5 -13 -2 -16 7 -7 27 6 27 18 0 12 -17 12 -25 -2z"/> <path d="M3106 2542 l-19 -27 24 22 c12 12 21 24 18 27 -2 2 -13 -8 -23 -22z"/> <path d="M1135 2550 c-3 -5 -1 -10 4 -10 6 0 11 5 11 10 0 6 -2 10 -4 10 -3 0 -8 -4 -11 -10z"/> <path d="M2007 2536 c-17 -16 -22 -26 -14 -29 8 -3 5 -10 -8 -20 -11 -8 -17 -19 -13 -23 10 -10 36 13 44 39 3 12 13 30 22 40 23 26 -1 21 -31 -7z"/> <path d="M3330 2550 c0 -5 5 -10 10 -10 6 0 10 5 10 10 0 6 -4 10 -10 10 -5 0 -10 -4 -10 -10z"/> <path d="M1090 2539 c0 -5 5 -7 10 -4 6 3 10 8 10 11 0 2 -4 4 -10 4 -5 0 -10 -5 -10 -11z"/> <path d="M1230 2536 c0 -8 -6 -16 -12 -19 -7 -2 1 -4 17 -4 17 0 24 2 17 4 -6 3 -10 9 -7 13 3 5 1 11 -5 15 -5 3 -10 0 -10 -9z"/> <path d="M1260 2540 c0 -5 5 -10 10 -10 6 0 10 5 10 10 0 6 -4 10 -10 10 -5 0 -10 -4 -10 -10z"/> <path d="M2960 2533 c46 -15 46 -15 25 -23 -17 -7 -16 -9 9 -9 28 -1 29 -1 11 19 -10 11 -28 20 -39 19 -14 0 -16 -2 -6 -6z"/> <path d="M1110 2520 c0 -5 5 -10 10 -10 6 0 10 5 10 10 0 6 -4 10 -10 10 -5 0 -10 -4 -10 -10z"/> <path d="M1145 2520 c3 -5 12 -10 19 -10 15 0 66 -48 66 -62 0 -5 -10 -6 -22 -3 -18 6 -20 5 -11 -5 13 -14 43 -7 43 11 0 17 -66 79 -85 79 -9 0 -13 -4 -10 -10z"/> <path d="M3317 2517 c-3 -8 -18 -17 -34 -19 l-28 -3 32 -6 c40 -7 52 0 43 25 -6 17 -7 17 -13 3z"/> <path d="M1087 2514 c-10 -11 -9 -26 2 -20 5 4 11 0 14 -6 3 -10 8 -10 18 1 8 8 9 11 2 7 -6 -3 -16 1 -20 9 -5 9 -12 12 -16 9z"/> <path d="M3348 2513 c7 -3 16 -2 19 1 4 3 -2 6 -13 5 -11 0 -14 -3 -6 -6z"/> <path d="M3486 2511 c-3 -5 0 -11 8 -14 15 -6 26 1 26 15 0 11 -27 10 -34 -1z"/> <path d="M3560 2510 c0 -5 5 -10 10 -10 6 0 10 5 10 10 0 6 -4 10 -10 10 -5 0 -10 -4 -10 -10z"/> <path d="M3040 2495 c0 -9 5 -15 11 -13 6 2 11 8 11 13 0 5 -5 11 -11 13 -6 2 -11 -4 -11 -13z"/> <path d="M3374 2496 c-6 -6 -21 -18 -33 -26 -11 -8 -21 -20 -21 -28 0 -7 -4 -10 -10 -7 -5 3 -10 1 -10 -4 0 -22 25 -10 42 19 19 33 52 40 62 14 4 -10 -1 -25 -10 -35 -11 -12 -13 -19 -5 -19 6 0 14 6 17 14 7 19 81 0 95 -25 5 -11 20 -19 32 -19 22 1 22 1 2 15 -11 8 -29 23 -40 34 -11 10 -35 22 -53 25 -17 4 -32 12 -32 18 0 19 -25 36 -36 24z"/> <path d="M2835 2474 l-30 -14 40 5 c22 3 48 5 58 5 10 0 15 5 12 10 -9 14 -45 12 -80 -6z"/> <path d="M2960 2480 c-19 -4 -27 -8 -18 -9 12 -1 15 -6 11 -18 -5 -14 1 -12 22 7 22 20 27 21 22 7 -4 -10 -3 -16 2 -12 5 3 12 -1 15 -7 2 -7 3 -2 2 11 -3 29 -9 31 -56 21z"/> <path d="M3087 2461 c-4 -17 -2 -18 13 -8 10 6 16 15 14 19 -9 14 -22 9 -27 -11z"/> <path d="M3571 2450 c13 -37 24 -40 15 -4 -4 14 -3 23 2 20 4 -2 14 -1 22 5 11 6 6 9 -17 9 -31 0 -32 -1 -22 -30z"/> <path d="M1150 2455 c0 -8 -8 -15 -17 -15 -13 0 -14 -3 -5 -12 9 -9 15 -8 27 8 17 23 19 34 5 34 -5 0 -10 -7 -10 -15z"/> <path d="M3043 2462 c-6 -4 -14 -21 -17 -37 -6 -26 -5 -27 3 -7 11 24 31 30 31 9 0 -7 -5 -18 -12 -25 -9 -9 -9 -12 0 -12 7 0 12 5 12 12 0 6 7 4 18 -5 22 -20 73 -22 90 -5 16 16 15 53 -3 68 -12 10 -13 6 -8 -26 4 -25 3 -35 -5 -30 -6 3 -14 1 -17 -4 -5 -7 -12 -5 -22 7 -8 10 -12 12 -8 6 3 -7 2 -13 -2 -13 -15 0 -33 23 -33 41 0 21 -12 30 -27 21z"/> <path d="M3210 2431 c0 -11 9 -23 21 -26 19 -6 19 -8 5 -24 -32 -35 -8 -92 31 -76 15 6 14 9 -10 17 -36 13 -32 38 8 58 26 12 27 15 10 18 -26 5 -56 32 -49 43 3 5 0 9 -5 9 -6 0 -11 -9 -11 -19z"/> <path d="M1166 2425 c-9 -26 -7 -32 5 -12 6 10 9 21 6 23 -2 3 -7 -2 -11 -11z"/> <path d="M992 2410 c0 -14 2 -19 5 -12 2 6 2 18 0 25 -3 6 -5 1 -5 -13z"/> <path d="M1010 2415 c0 -8 2 -15 4 -15 2 0 6 7 10 15 3 8 1 15 -4 15 -6 0 -10 -7 -10 -15z"/> <path d="M1890 2408 c0 -19 2 -20 10 -8 13 19 13 30 0 30 -5 0 -10 -10 -10 -22z"/> <path d="M3340 2425 c0 -20 23 -46 36 -41 9 3 25 1 37 -5 20 -11 20 -12 2 -25 -16 -12 -22 -11 -42 8 -13 12 -26 18 -30 14 -4 -3 3 -13 15 -22 25 -17 29 -43 7 -45 -8 -1 -20 -2 -26 -3 -7 -1 -16 10 -21 23 -6 19 -6 22 5 15 7 -5 4 -1 -6 9 -32 28 -48 22 -35 -14 6 -16 13 -28 15 -25 3 3 13 -5 23 -17 15 -19 21 -20 44 -9 14 6 26 18 26 27 0 8 6 15 14 15 8 0 22 10 30 22 18 26 5 48 -28 48 -12 0 -32 7 -44 16 -12 8 -22 12 -22 9z m-43 -87 c-3 -8 -6 -5 -6 6 -1 11 2 17 5 13 3 -3 4 -12 1 -19z"/> <path d="M1032 2398 c3 -7 13 -15 24 -16 10 -2 29 -14 42 -25 21 -20 22 -22 5 -28 -13 -6 -9 -8 15 -8 33 -1 42 -17 20 -39 -8 -8 -8 -12 -1 -12 6 0 14 7 17 16 6 15 10 14 31 -6 14 -13 25 -19 25 -13 0 6 -7 16 -15 23 -18 15 -9 34 12 26 8 -3 11 -1 8 4 -8 13 -35 13 -35 1 0 -14 -57 17 -64 34 -7 19 -90 62 -84 43z"/> <path d="M3306 2403 c-11 -11 -6 -23 9 -23 8 0 15 4 15 9 0 13 -16 22 -24 14z"/> <path d="M3572 2398 c-8 -8 -4 -19 18 -45 17 -19 30 -43 30 -53 0 -21 15 -27 25 -10 3 6 1 10 -5 10 -6 0 -9 4 -6 8 3 5 -9 25 -25 45 -17 20 -27 37 -22 36 4 0 53 -19 108 -42 79 -33 104 -49 122 -76 13 -19 22 -40 19 -47 -6 -16 20 -39 28 -25 4 5 -2 12 -11 14 -17 4 -17 5 0 6 17 1 17 3 -2 27 -12 15 -21 31 -21 36 0 13 51 -21 77 -51 18 -21 25 -23 35 -13 11 11 8 17 -12 33 -14 11 -43 29 -65 39 -38 18 -38 19 -14 25 14 3 29 5 35 4 18 -3 34 1 34 9 0 5 -28 7 -62 5 -48 -4 -74 0 -108 16 -40 17 -42 20 -18 20 40 1 80 19 72 32 -3 6 -9 7 -13 3 -3 -5 -15 -10 -26 -12 -11 -1 -36 -5 -55 -8 -22 -4 -50 0 -74 10 -46 19 -49 19 -64 4z"/> <path d="M1576 2372 c-3 -5 1 -9 9 -9 8 0 12 4 9 9 -3 4 -7 8 -9 8 -2 0 -6 -4 -9 -8z"/> <path d="M940 2363 c0 -14 19 -38 25 -32 8 8 -5 39 -16 39 -5 0 -9 -3 -9 -7z"/> <path d="M1060 2340 c0 -5 5 -10 10 -10 6 0 10 5 10 10 0 6 -4 10 -10 10 -5 0 -10 -4 -10 -10z"/> <path d="M1560 2340 c0 -5 5 -10 10 -10 6 0 10 5 10 10 0 6 -4 10 -10 10 -5 0 -10 -4 -10 -10z"/> <path d="M2438 2315 c-3 -22 -9 -50 -13 -62 -5 -15 -3 -23 4 -23 6 0 11 9 11 20 0 11 4 20 9 20 14 0 22 -29 15 -56 -3 -13 -2 -24 4 -24 5 0 13 11 16 24 4 18 11 23 28 20 16 -3 13 0 -8 10 -43 20 -54 48 -16 41 27 -5 27 -5 -3 9 -16 8 -32 25 -36 37 -5 20 -7 17 -11 -16z"/> <path d="M927 2332 c-3 -4 1 -13 9 -19 7 -7 15 -9 17 -5 3 4 -1 13 -9 19 -7 7 -15 9 -17 5z"/> <path d="M1002 2330 c14 -4 31 -11 37 -14 7 -4 8 -1 5 8 -4 10 -18 16 -38 15 l-31 -1 27 -8z"/> <path d="M880 2281 c0 -11 -4 -21 -10 -21 -5 0 -10 -4 -10 -10 0 -5 7 -10 16 -10 8 0 13 4 9 9 -3 6 2 14 10 19 15 8 15 10 1 21 -14 12 -16 10 -16 -8z"/> <path d="M1390 2280 c0 -5 5 -10 11 -10 5 0 7 5 4 10 -3 6 -8 10 -11 10 -2 0 -4 -4 -4 -10z"/> <path d="M930 2270 c0 -5 5 -10 11 -10 5 0 7 5 4 10 -3 6 -8 10 -11 10 -2 0 -4 -4 -4 -10z"/> <path d="M999 2263 c-8 -9 -9 -14 -2 -10 6 4 13 1 16 -5 2 -7 8 -9 13 -5 5 4 2 12 -5 16 -11 7 -11 10 0 14 8 3 9 6 3 6 -6 1 -18 -7 -25 -16z"/> <path d="M900 2249 c0 -5 5 -7 10 -4 6 3 10 8 10 11 0 2 -4 4 -10 4 -5 0 -10 -5 -10 -11z"/> <path d="M1120 2249 c-13 -9 -13 -10 2 -6 9 3 18 1 21 -6 2 -6 6 -4 10 6 7 19 -10 23 -33 6z"/> <path d="M1360 2250 c0 -5 5 -10 10 -10 6 0 10 5 10 10 0 6 -4 10 -10 10 -5 0 -10 -4 -10 -10z"/> <path d="M1442 2200 c-10 -16 -9 -21 8 -30 22 -12 25 -2 12 32 -7 17 -8 16 -20 -2z"/> <path d="M2491 2188 c-1 -20 4 -40 11 -44 8 -5 9 -2 5 9 -3 10 -2 17 4 17 6 0 7 5 3 11 -4 8 1 9 16 4 15 -5 20 -4 16 4 -4 6 -16 11 -26 11 -10 0 -21 6 -23 13 -3 6 -6 -5 -6 -25z"/> <path d="M1341 2201 c-7 -5 -11 -15 -9 -22 3 -10 8 -7 17 9 13 24 12 26 -8 13z"/> <path d="M893 2183 c4 -3 0 -15 -10 -25 -9 -10 -11 -18 -5 -18 6 0 13 6 15 13 4 9 8 9 15 -2 7 -9 12 -10 16 -2 4 6 2 11 -3 11 -6 0 -11 7 -11 15 0 8 -5 15 -12 15 -6 0 -8 -3 -5 -7z"/> <path d="M1876 2170 c3 -14 10 -32 15 -40 7 -13 8 -13 8 0 0 8 -6 26 -15 40 l-15 25 7 -25z"/> <path d="M2661 2137 c-1 -34 7 -65 25 -104 30 -63 25 -88 -18 -88 -13 0 -32 -8 -41 -17 -10 -9 -24 -15 -31 -12 -8 3 -16 -4 -19 -17 -4 -15 -11 -20 -25 -17 -12 3 -23 -2 -31 -14 -9 -14 -20 -19 -37 -15 -15 3 -24 0 -24 -8 0 -17 -23 -25 -40 -15 -9 6 -18 3 -26 -8 -10 -14 -16 -15 -32 -5 -16 9 -23 8 -36 -5 -16 -16 -18 -16 -36 5 -14 18 -19 20 -24 8 -7 -20 -33 -19 -46 3 -10 16 -10 16 -20 0 -6 -10 -17 -18 -25 -18 -8 0 -19 8 -25 18 -8 12 -13 13 -16 5 -8 -18 -29 -16 -44 2 -9 10 -16 12 -25 5 -13 -11 -35 6 -35 28 0 11 -3 12 -14 3 -8 -7 -25 -9 -38 -6 -16 4 -29 1 -37 -9 -15 -18 -8 -20 19 -6 15 8 18 7 14 -3 -3 -8 -16 -20 -30 -28 -23 -12 -60 -76 -50 -86 3 -3 16 14 30 36 15 23 33 41 41 41 18 0 18 -5 5 -30 -9 -18 -6 -19 37 -18 37 0 51 6 66 24 22 28 47 31 47 6 0 -14 8 -17 40 -17 50 0 71 -18 40 -35 -17 -9 -26 -8 -43 2 -16 10 -40 13 -82 9 -40 -4 -55 -9 -46 -15 11 -7 11 -10 0 -17 -20 -13 -26 -11 -48 12 -23 25 -47 20 -92 -22 -17 -16 -32 -29 -33 -29 -6 0 0 110 6 116 4 4 14 2 22 -5 11 -9 15 -7 20 11 3 13 6 39 6 58 0 24 3 31 11 23 14 -14 49 -5 49 13 0 8 -9 13 -22 11 -16 -1 -23 5 -28 23 l-7 25 -8 -30 c-4 -16 -28 -68 -52 -115 -102 -200 -81 -417 54 -543 135 -126 169 -154 183 -154 8 0 56 -10 105 -23 122 -30 278 -32 398 -5 48 11 87 23 87 27 0 4 14 23 31 42 17 20 32 42 33 49 1 8 13 25 28 38 14 13 36 41 48 62 22 38 22 39 2 26 -11 -7 -25 -24 -31 -37 -6 -13 -16 -20 -21 -17 -6 4 -7 -1 -3 -12 5 -15 4 -16 -8 -5 -11 10 -11 16 -1 32 10 16 10 20 -2 20 -17 0 -31 -17 -41 -50 -7 -22 -6 -23 9 -11 10 9 16 10 16 2 0 -6 -3 -11 -7 -12 -5 0 -18 -2 -31 -5 -26 -5 -41 21 -23 39 16 16 14 27 -7 27 -22 0 -66 -56 -52 -65 6 -3 10 -12 10 -20 0 -9 -11 -12 -40 -10 -48 4 -71 -16 -52 -46 7 -11 10 -24 7 -29 -3 -4 1 -10 7 -13 20 -7 4 -17 -31 -20 -17 -1 -31 -5 -31 -10 0 -4 -39 -5 -87 -2 -49 3 -100 5 -115 5 -16 0 -28 4 -28 10 0 5 5 10 10 10 6 0 10 7 10 15 0 24 56 19 74 -7 9 -12 16 -19 16 -15 0 4 8 3 18 -2 23 -12 66 14 58 34 -2 7 9 24 25 38 22 18 30 32 27 49 -2 13 -9 22 -17 20 -12 -3 -12 -1 -1 13 12 15 11 15 -13 4 -15 -7 -27 -16 -27 -22 0 -5 -7 -6 -16 -3 -8 3 -13 2 -10 -2 8 -13 -7 -29 -35 -35 -21 -5 -28 -3 -32 13 -6 25 -54 27 -71 4 -18 -24 -83 -10 -82 18 1 12 -8 24 -21 29 -19 7 -30 1 -65 -33 -24 -23 -47 -41 -51 -40 -5 2 -6 -2 -2 -7 6 -11 55 7 55 20 0 15 43 49 62 49 17 0 17 -2 3 -24 -15 -23 -15 -24 12 -29 15 -3 40 -9 55 -12 19 -5 32 -1 47 14 12 12 28 21 36 21 18 0 18 -5 5 -31 -9 -16 -7 -19 8 -19 41 0 82 13 82 26 0 15 30 34 54 34 39 0 0 -48 -46 -57 l-29 -6 22 -20 c21 -20 21 -21 3 -28 -28 -11 -29 -11 -55 15 -18 17 -38 25 -76 27 -46 4 -50 2 -42 -14 6 -9 7 -21 4 -26 -11 -18 -48 3 -61 35 -12 28 -20 34 -44 34 -32 0 -48 -15 -25 -24 8 -3 15 -10 15 -15 0 -16 -33 -22 -49 -8 -9 8 -22 12 -29 10 -7 -3 -12 -1 -11 4 3 13 -12 43 -22 43 -5 0 -30 16 -56 36 -55 41 -64 50 -43 40 8 -4 4 2 -10 13 -14 11 -29 21 -33 21 -5 0 -5 5 -2 10 3 6 2 10 -2 10 -30 0 -73 159 -67 247 7 110 7 109 43 95 7 -3 17 1 22 9 5 8 9 9 9 3 0 -6 -7 -17 -15 -24 -9 -8 -15 -30 -15 -56 0 -32 -5 -47 -19 -56 -27 -17 -16 -35 36 -59 42 -19 46 -19 63 -4 18 16 35 59 20 50 -5 -3 -11 -1 -15 5 -11 18 25 11 54 -11 23 -17 33 -19 50 -10 11 6 26 21 32 32 7 13 7 19 1 15 -6 -3 -13 -2 -16 3 -3 5 2 12 11 15 19 8 42 -20 31 -38 -6 -9 53 -47 69 -44 10 2 21 17 26 34 l9 31 29 -26 c31 -29 75 -34 89 -11 5 8 7 17 4 21 -9 15 43 -5 69 -28 27 -22 41 -27 61 -24 5 1 16 -1 25 -4 13 -5 14 -7 1 -15 -11 -7 -8 -10 13 -10 24 0 27 3 22 21 -7 22 2 21 35 -6 17 -14 60 -26 58 -16 -2 18 4 21 22 11 11 -6 20 -17 20 -26 0 -12 -8 -13 -34 -9 -20 4 -36 2 -40 -4 -11 -17 -39 -13 -32 4 6 17 -26 20 -59 4 -18 -8 -17 -9 5 -5 16 3 35 -3 54 -18 37 -31 19 -41 -30 -16 -47 24 -52 25 -77 3 -11 -10 -17 -13 -14 -6 5 7 -13 21 -48 38 -46 21 -59 24 -77 14 -18 -10 -24 -8 -35 7 -7 10 -13 14 -13 8 0 -5 -4 -3 -9 5 -7 11 -13 9 -30 -8 -11 -11 -21 -17 -21 -11 0 5 -3 9 -7 9 -20 -3 -34 2 -28 11 4 6 -2 7 -17 1 -12 -4 -25 -18 -28 -31 -5 -22 -7 -22 -22 -7 -18 19 -53 22 -63 7 -4 -6 1 -7 11 -3 13 5 15 3 9 -7 -6 -9 -4 -11 4 -6 7 5 20 1 31 -9 21 -19 71 -12 51 8 -6 6 -11 17 -11 24 0 21 27 15 48 -12 24 -30 52 -34 45 -6 -9 35 19 36 47 3 31 -38 47 -41 46 -9 -1 32 28 28 32 -5 2 -14 9 -29 17 -32 9 -3 12 0 9 9 -3 8 -3 19 0 24 11 16 33 2 46 -30 7 -16 16 -29 20 -29 5 0 17 -3 27 -7 16 -6 16 -5 4 10 -15 19 -8 51 10 45 7 -2 17 -19 23 -38 13 -40 36 -53 29 -15 -4 18 -1 25 11 25 10 0 19 -11 23 -30 3 -16 9 -30 13 -30 5 0 15 -3 24 -6 12 -5 11 1 -4 30 -17 35 -17 76 1 76 13 0 11 -18 -3 -26 -7 -5 -4 -10 11 -15 12 -5 27 -22 32 -38 11 -30 34 -47 44 -31 3 5 1 11 -5 15 -5 3 -10 15 -10 26 0 13 -4 18 -12 13 -6 -4 -8 -3 -5 4 11 17 46 1 64 -29 20 -33 39 -38 39 -10 0 11 -4 17 -8 15 -4 -3 -8 -1 -8 5 0 21 21 21 43 -1 41 -42 82 -2 123 122 12 37 18 85 19 145 0 79 -4 97 -28 147 -15 32 -64 97 -108 145 -88 96 -107 130 -119 213 l-7 55 -2 -48z m81 -201 c50 -52 88 -96 81 -96 -4 0 0 -5 10 -11 21 -12 69 -108 61 -121 -3 -5 -1 -14 4 -21 11 -14 13 -139 2 -132 -5 3 -10 -2 -14 -10 -3 -8 -1 -15 5 -15 6 0 7 -4 4 -10 -3 -5 -8 -18 -10 -28 -2 -10 -10 -35 -18 -55 -14 -33 -19 -36 -45 -31 -18 4 -41 0 -60 -10 -39 -20 -46 -20 -38 -1 8 21 -22 31 -45 17 -26 -16 -46 -15 -53 4 -3 9 -2 12 5 9 5 -4 16 -1 24 5 8 6 23 9 34 5 16 -5 19 -3 15 8 -10 27 16 29 28 3 10 -23 15 -25 49 -20 25 4 44 2 54 -6 8 -7 15 -8 15 -3 0 5 -11 16 -25 23 -33 18 -32 29 4 36 46 10 61 57 26 86 -12 10 -15 17 -7 18 8 0 6 10 -9 29 -19 26 -25 28 -72 24 -46 -3 -72 -17 -62 -33 2 -4 -7 -19 -20 -34 -18 -21 -22 -33 -15 -46 5 -10 6 -20 3 -24 -3 -3 2 -6 12 -6 14 0 16 -3 8 -11 -8 -8 -18 -6 -37 6 -15 10 -35 15 -48 12 -13 -4 -32 2 -48 13 -15 11 -30 16 -34 12 -4 -3 -2 7 4 23 6 17 11 31 11 33 -8 27 21 34 69 17 43 -15 43 -15 86 24 13 12 13 16 -1 37 -13 21 -13 24 2 32 11 6 25 6 39 0 12 -6 39 -7 58 -4 29 6 36 12 36 29 0 13 -5 28 -12 35 -6 6 -11 24 -10 40 0 17 -7 33 -18 40 -21 13 -50 6 -50 -10 0 -6 -8 -16 -17 -23 -14 -10 -21 -10 -40 2 -31 21 -60 8 -69 -30 -4 -18 -7 -38 -5 -45 6 -33 -54 -54 -64 -22 -5 16 -14 20 -32 18 -28 -3 -38 -17 -48 -62 -3 -15 -9 -26 -12 -23 -3 3 -12 0 -19 -8 -19 -19 -47 -8 -41 16 6 23 -22 49 -50 46 -14 -1 -27 -12 -34 -29 -9 -23 -17 -28 -38 -24 -16 2 -25 9 -22 17 12 45 12 61 -3 78 -9 9 -17 29 -18 44 -1 14 -6 23 -10 21 -5 -3 -5 -11 -1 -17 4 -7 -1 -6 -11 2 -15 13 -16 15 -2 23 9 5 23 5 34 -1 13 -7 22 -7 30 1 9 9 12 9 12 -1 0 -9 14 -11 57 -6 32 3 62 10 67 15 5 5 16 5 27 0 12 -7 19 -5 23 6 3 9 12 14 19 11 7 -3 24 4 38 14 13 10 32 19 41 19 9 0 23 9 31 21 13 18 29 25 60 28 5 1 6 5 3 10 -4 5 2 7 11 5 10 -3 27 2 38 10 25 19 30 19 47 2z m-718 -101 c8 -8 19 -15 25 -15 5 0 13 -5 17 -12 4 -7 3 -8 -4 -4 -7 4 -12 1 -12 -8 0 -28 -49 -20 -60 10 -16 41 4 58 34 29z m762 -19 c20 -20 18 -25 -13 -37 l-28 -11 38 -15 c49 -20 47 -47 -5 -51 -27 -2 -40 2 -50 16 -13 19 -15 18 -52 -14 -22 -19 -37 -35 -35 -37 2 -1 13 -7 23 -13 29 -16 30 -29 1 -42 -27 -13 -60 -3 -67 19 -2 6 -21 0 -48 -15 -25 -14 -53 -26 -64 -26 -16 0 -15 -3 8 -21 26 -20 26 -22 10 -40 -9 -11 -28 -19 -41 -19 -26 0 -67 36 -58 50 4 6 -7 10 -24 10 -16 0 -41 4 -55 10 -29 11 -31 8 -14 -20 15 -24 6 -34 -24 -27 -23 6 -63 37 -69 55 -2 5 -17 12 -32 16 l-28 7 16 -30 c18 -36 20 -71 3 -71 -23 0 -58 43 -58 72 0 26 -2 28 -43 28 -24 0 -46 -3 -49 -6 -3 -3 5 -17 19 -32 l24 -27 -21 -9 c-25 -11 -50 0 -65 31 -11 21 -11 21 -55 -3 -33 -17 -39 -23 -24 -24 30 0 53 -28 33 -41 -20 -12 -32 -11 -54 5 -11 8 -25 12 -32 9 -21 -8 -15 8 12 29 20 15 23 23 15 38 -14 25 -13 43 4 65 12 16 16 17 30 6 9 -7 16 -25 16 -38 0 -20 4 -24 18 -18 9 4 29 11 44 17 17 6 25 15 21 24 -7 18 15 71 32 78 16 6 37 -47 29 -69 -5 -12 4 -15 45 -15 46 0 51 2 51 23 0 31 27 67 51 67 24 0 26 -45 4 -77 -14 -20 -13 -21 35 -30 48 -10 50 -9 50 12 0 27 34 59 55 52 17 -7 21 -52 5 -62 -24 -15 -8 -27 28 -21 92 16 88 13 84 54 -6 67 51 82 60 16 l3 -24 47 31 c42 27 46 34 37 51 -11 20 4 78 20 78 14 0 31 -24 31 -43 0 -16 5 -15 42 12 22 17 46 28 51 24 6 -3 7 -1 3 6 -4 6 -12 9 -17 6 -10 -7 -12 8 -2 18 9 10 13 9 29 -7z m-632 -91 c13 -10 16 -20 11 -32 -5 -10 -9 -22 -9 -28 -1 -5 -16 -11 -34 -13 -32 -3 -34 -2 -30 28 2 19 -3 35 -12 41 -12 9 -10 10 7 6 13 -3 26 -1 29 4 7 12 16 11 38 -6z m-180 -11 c9 -3 13 -10 10 -15 -3 -5 2 -6 11 -3 13 5 15 2 9 -22 -7 -30 -29 -54 -51 -54 -7 0 -10 6 -7 13 2 7 -7 19 -21 27 -29 16 -32 28 -7 46 19 15 33 17 56 8z m792 -109 c5 -13 8 -13 21 1 21 21 38 12 38 -19 1 -15 9 -33 20 -40 26 -20 13 -51 -19 -45 -18 4 -26 0 -29 -14 -7 -24 -47 -24 -47 0 0 15 -6 18 -30 14 -21 -3 -32 0 -36 12 -8 20 15 49 33 42 10 -4 12 1 7 19 -3 13 -3 29 1 34 9 16 35 13 41 -4z m-239 -30 c0 -8 -4 -12 -9 -9 -5 3 -6 10 -3 15 9 13 12 11 12 -6z m303 -188 c0 -22 -11 -27 -33 -16 -16 9 -17 13 -6 20 21 13 39 11 39 -4z m-152 -173 c14 -9 30 -13 44 -8 l21 6 -22 -31 c-25 -35 -35 -40 -26 -12 5 16 2 18 -15 14 -18 -5 -24 -17 -23 -49 0 -6 -8 -9 -19 -6 -13 3 -17 10 -13 23 8 23 -3 24 -27 2 -23 -21 -23 -37 1 -30 10 2 25 1 32 -4 10 -6 8 -9 -8 -9 -12 0 -29 -3 -39 -7 -11 -4 -15 -3 -11 4 4 6 1 13 -5 16 -10 3 -10 7 0 19 10 13 9 16 -9 21 -31 8 -12 30 21 24 34 -7 89 6 72 17 -13 8 -16 26 -4 26 4 0 18 -7 30 -16z m-492 -75 c11 -23 12 -29 2 -23 -7 5 -22 7 -33 5 -16 -2 -17 -1 -6 13 7 8 10 20 6 26 -3 5 -2 10 4 10 6 0 18 -14 27 -31z"/> <path d="M2640 1750 c0 -30 13 -40 25 -20 8 13 -4 50 -16 50 -5 0 -9 -13 -9 -30z"/> <path d="M2736 1735 c7 -17 40 -29 55 -19 9 5 6 11 -6 21 -26 18 -56 17 -49 -2z"/> <path d="M2190 1671 c-13 -26 -13 -31 4 -31 13 0 26 20 26 41 0 16 -19 10 -30 -10z"/> <path d="M2495 1680 c-10 -16 4 -62 15 -55 13 8 13 52 1 60 -5 3 -13 0 -16 -5z"/> <path d="M2030 1655 c0 -28 15 -34 24 -9 10 25 7 34 -9 34 -9 0 -15 -9 -15 -25z"/> <path d="M2337 1653 c-4 -3 -7 -17 -7 -31 0 -21 2 -22 15 -12 8 7 15 21 15 31 0 19 -11 25 -23 12z"/> <path d="M2622 1638 c3 -7 13 -15 22 -16 12 -3 17 1 14 10 -3 7 -13 15 -22 16 -12 3 -17 -1 -14 -10z"/> <path d="M1890 1610 c0 -30 13 -40 25 -20 8 13 -4 50 -16 50 -5 0 -9 -13 -9 -30z"/> <path d="M2130 1587 c0 -8 7 -20 15 -27 12 -10 15 -10 15 3 0 8 -7 20 -15 27 -12 10 -15 10 -15 -3z"/> <path d="M2000 1576 c0 -9 7 -19 15 -23 25 -9 27 2 5 22 -18 17 -20 17 -20 1z"/> <path d="M2240 1586 c0 -11 33 -36 47 -36 14 0 14 3 -2 20 -16 18 -45 28 -45 16z"/> <path d="M2435 1550 c18 -20 55 -28 55 -12 0 16 -24 32 -49 32 -23 0 -24 -1 -6 -20z"/> <path d="M1885 1520 c3 -5 15 -10 26 -10 11 0 17 5 14 10 -3 6 -15 10 -26 10 -11 0 -17 -4 -14 -10z"/> <path d="M2780 1570 c0 -5 -7 -7 -15 -4 -8 4 -15 2 -15 -4 0 -6 -3 -18 -7 -28 -4 -11 -3 -15 5 -10 6 3 15 -1 20 -10 8 -15 10 -15 15 0 4 9 14 16 24 16 17 1 17 1 -1 15 -10 7 -15 18 -11 24 3 6 1 11 -4 11 -6 0 -11 -4 -11 -10z"/> <path d="M1416 2156 c21 -15 30 -14 19 3 -3 6 -14 11 -23 11 -13 0 -13 -2 4 -14z"/> <path d="M2526 2147 c9 -31 28 -48 21 -20 -4 16 -1 20 11 16 9 -4 13 -2 9 4 -4 6 -16 13 -27 16 -18 4 -20 2 -14 -16z"/> <path d="M905 2120 c-3 -5 -1 -10 4 -10 6 0 11 5 11 10 0 6 -2 10 -4 10 -3 0 -8 -4 -11 -10z"/> <path d="M1906 2114 c-9 -24 -7 -31 4 -14 8 12 11 11 16 -8 4 -13 11 -21 17 -19 21 7 18 24 -7 40 -22 15 -25 15 -30 1z"/> <path d="M980 2100 c0 -5 5 -10 11 -10 5 0 7 5 4 10 -3 6 -8 10 -11 10 -2 0 -4 -4 -4 -10z"/> <path d="M1005 2080 c-3 -5 -1 -10 4 -10 6 0 11 5 11 10 0 6 -2 10 -4 10 -3 0 -8 -4 -11 -10z"/> <path d="M1332 2070 c7 -10 14 -18 15 -16 6 6 -9 36 -18 36 -5 0 -4 -9 3 -20z"/> <path d="M1173 2067 c4 -10 7 -23 7 -28 0 -4 7 -6 15 -3 8 4 15 2 15 -4 0 -6 17 -21 38 -33 41 -25 53 -39 46 -51 -3 -4 -1 -8 5 -8 15 0 9 39 -7 45 -7 3 -10 9 -7 15 3 5 0 7 -8 5 -7 -3 -35 14 -62 37 -29 25 -46 35 -42 25z"/> <path d="M1914 2050 c3 -14 6 -38 7 -55 0 -26 2 -27 9 -10 9 23 3 65 -13 80 -6 7 -8 2 -3 -15z"/> <path d="M2010 2051 c5 -11 10 -29 10 -41 l0 -22 29 24 28 23 -31 17 c-41 22 -49 22 -36 -1z"/> <path d="M2502 2052 c-9 -7 -8 -13 8 -27 20 -18 20 -18 20 8 0 28 -6 32 -28 19z"/> <path d="M1140 2019 c0 -5 5 -7 10 -4 6 3 10 8 10 11 0 2 -4 4 -10 4 -5 0 -10 -5 -10 -11z"/> <path d="M2120 2027 c0 -1 6 -20 14 -41 14 -39 14 -39 26 -15 7 13 17 27 22 30 5 3 -7 10 -27 16 -19 6 -35 10 -35 10z"/> <path d="M875 2010 c3 -5 8 -10 11 -10 2 0 4 5 4 10 0 6 -5 10 -11 10 -5 0 -7 -4 -4 -10z"/> <path d="M906 2004 c-8 -22 -8 -24 6 -24 6 0 8 3 5 7 -4 3 -2 12 4 20 7 8 8 13 1 13 -5 0 -13 -7 -16 -16z"/> <path d="M1165 2010 c-3 -5 1 -10 10 -10 9 0 13 5 10 10 -3 6 -8 10 -10 10 -2 0 -7 -4 -10 -10z"/> <path d="M2383 2012 l-22 -7 23 -26 23 -27 11 34 c11 36 8 38 -35 26z"/> <path d="M1310 2004 c0 -13 18 -39 24 -34 2 3 -2 14 -10 24 -8 11 -14 16 -14 10z"/> <path d="M2237 1995 c4 -5 13 -20 21 -33 l15 -23 18 28 c11 15 19 30 19 33 0 3 -18 5 -39 5 -25 1 -37 -3 -34 -10z"/> <path d="M1143 1955 c-20 -31 -21 -36 -7 -50 8 -8 20 -15 25 -15 6 0 3 7 -5 16 -20 20 -20 20 5 55 11 16 17 29 12 29 -4 0 -18 -16 -30 -35z"/> <path d="M2660 1975 c0 -9 5 -15 11 -13 6 2 11 8 11 13 0 5 -5 11 -11 13 -6 2 -11 -4 -11 -13z"/> <path d="M2597 1954 c-8 -8 1 -24 14 -24 5 0 9 7 9 15 0 15 -12 20 -23 9z"/> <path d="M1930 1935 c0 -8 5 -15 10 -15 6 0 10 7 10 15 0 8 -4 15 -10 15 -5 0 -10 -7 -10 -15z"/> <path d="M2546 1923 c-11 -11 -6 -23 9 -23 8 0 15 4 15 9 0 13 -16 22 -24 14z"/> <path d="M1105 1900 c-3 -5 -1 -10 4 -10 6 0 11 5 11 10 0 6 -2 10 -4 10 -3 0 -8 -4 -11 -10z"/> <path d="M1980 1890 c0 -5 7 -10 15 -10 8 0 15 5 15 10 0 6 -7 10 -15 10 -8 0 -15 -4 -15 -10z"/> <path d="M2480 1880 c0 -5 5 -10 10 -10 6 0 10 5 10 10 0 6 -4 10 -10 10 -5 0 -10 -4 -10 -10z"/> <path d="M2045 1869 c-10 -15 3 -25 16 -12 7 7 7 13 1 17 -6 3 -14 1 -17 -5z"/> <path d="M2426 1863 c-11 -11 -6 -23 9 -23 8 0 15 4 15 9 0 13 -16 22 -24 14z"/> <path d="M2100 1850 c0 -5 5 -10 10 -10 6 0 10 5 10 10 0 6 -4 10 -10 10 -5 0 -10 -4 -10 -10z"/> <path d="M2166 1853 c-11 -11 -6 -23 9 -23 8 0 15 4 15 9 0 13 -16 22 -24 14z"/> <path d="M2236 1853 c-11 -11 -6 -23 9 -23 8 0 15 4 15 9 0 13 -16 22 -24 14z"/> <path d="M2295 1841 c-7 -12 12 -24 25 -16 11 7 4 25 -10 25 -5 0 -11 -4 -15 -9z"/> <path d="M2360 1834 c0 -9 5 -14 12 -12 18 6 21 28 4 28 -9 0 -16 -7 -16 -16z"/> <path d="M2140 1450 c0 -5 5 -10 11 -10 5 0 7 5 4 10 -3 6 -8 10 -11 10 -2 0 -4 -4 -4 -10z"/> <path d="M2026 1422 c-3 -5 -18 -7 -34 -4 -16 2 -32 0 -35 -5 -3 -4 8 -9 25 -9 17 -1 34 -7 38 -14 5 -9 15 -10 33 -4 l25 9 -23 18 c-13 9 -26 13 -29 9z"/> <path d="M2470 1400 c0 -5 5 -10 10 -10 6 0 10 5 10 10 0 6 -4 10 -10 10 -5 0 -10 -4 -10 -10z"/> <path d="M2127 1393 c-2 -5 -7 -21 -11 -36 -8 -32 -29 -31 -34 1 -4 24 -4 24 -26 16 -10 -4 -16 -18 -16 -35 0 -38 -26 -39 -33 -1 -4 16 -16 32 -31 39 -25 11 -37 1 -16 -12 6 -4 7 -11 4 -17 -4 -6 1 -8 16 -3 19 6 21 5 11 -13 -8 -16 -7 -21 5 -26 30 -12 53 -6 59 15 5 15 10 18 18 10 19 -19 46 -12 53 14 5 21 8 23 21 10 18 -19 23 -19 51 1 12 8 22 12 22 7 0 -10 20 19 20 30 0 4 -9 7 -20 7 -11 0 -20 -6 -20 -14 0 -24 -26 -38 -40 -22 -6 9 -9 20 -5 26 3 5 -1 10 -9 10 -8 0 -17 -3 -19 -7z"/> <path d="M2283 1382 c-10 -28 -25 -42 -37 -35 -6 4 -17 8 -25 10 -11 1 -10 -2 2 -14 13 -13 21 -14 41 -5 19 9 27 8 36 -4 7 -8 19 -14 27 -14 9 0 11 -5 7 -12 -5 -9 -2 -9 9 1 13 10 17 10 17 1 0 -8 13 -10 40 -7 37 4 45 -1 41 -25 0 -4 10 -3 23 2 20 7 25 5 35 -17 10 -21 16 -24 39 -18 15 4 30 12 34 18 5 8 8 6 8 -5 0 -9 5 -20 10 -23 7 -4 9 2 5 18 -4 14 -2 28 4 31 17 11 13 26 -6 26 -10 0 -26 -14 -36 -31 -17 -30 -37 -35 -45 -11 -2 8 3 10 15 6 15 -5 16 -4 3 5 -13 10 -13 13 3 25 16 13 16 14 -5 19 -15 4 -26 0 -35 -13 -8 -11 -21 -20 -29 -20 -16 0 -19 26 -4 35 16 10 12 22 -10 28 -13 3 -24 -3 -35 -19 -17 -26 -39 -31 -51 -13 -4 7 3 19 16 29 l23 18 -23 7 c-14 4 -26 3 -27 -2 -2 -6 -10 -19 -18 -29 -13 -16 -16 -17 -24 -4 -7 10 -5 20 5 31 13 15 13 17 -6 22 -14 4 -23 0 -27 -11z"/> <path d="M2680 1360 c0 -5 5 -10 10 -10 6 0 10 5 10 10 0 6 -4 10 -10 10 -5 0 -10 -4 -10 -10z"/> <path d="M2094 1084 c3 -9 6 -22 6 -30 0 -19 13 -18 26 4 10 15 7 20 -13 29 -21 10 -24 10 -19 -3z"/> <path d="M2671 1074 c0 -11 3 -14 6 -6 3 7 2 16 -1 19 -3 4 -6 -2 -5 -13z"/> <path d="M2160 1064 c0 -5 4 -15 8 -21 6 -10 12 -10 28 2 10 8 14 15 7 15 -6 0 -18 3 -27 6 -9 3 -16 2 -16 -2z"/> <path d="M2611 1061 c-8 -6 -9 -11 -3 -15 6 -3 14 -1 17 5 9 14 2 20 -14 10z"/> <path d="M2243 1033 c16 -16 18 -16 34 0 16 16 15 17 -17 17 -32 0 -33 -1 -17 -17z"/> <path d="M2510 1039 c0 -6 24 -19 35 -19 1 0 5 7 9 15 4 11 -1 14 -19 13 -14 -1 -25 -5 -25 -9z"/> <path d="M2640 1038 c0 -7 11 -26 25 -42 29 -34 31 -30 8 19 -17 35 -33 46 -33 23z"/> <path d="M2122 1028 c-6 -8 -7 -19 -3 -26 6 -10 11 -9 21 3 9 11 10 19 3 26 -7 7 -14 5 -21 -3z"/> <path d="M2321 1023 c7 -10 14 -19 15 -21 0 -1 9 7 19 18 18 20 17 20 -15 20 -29 0 -31 -2 -19 -17z"/> <path d="M2427 1018 c15 -17 17 -17 35 -2 24 23 23 24 -17 22 -34 -1 -34 -2 -18 -20z"/> <path d="M2567 1016 c-7 -19 18 -42 28 -26 8 13 -1 40 -14 40 -5 0 -11 -6 -14 -14z"/> <path d="M2194 1014 c-7 -3 -10 -14 -7 -25 4 -15 8 -17 19 -8 8 6 14 18 14 25 0 14 -6 16 -26 8z"/> <path d="M2612 985 c-11 -39 -4 -44 35 -22 l22 12 -23 22 -23 22 -11 -34z"/> <path d="M2277 1004 c-4 -4 -7 -16 -7 -26 0 -16 3 -17 21 -8 11 6 19 16 16 23 -4 14 -21 20 -30 11z"/> <path d="M2370 995 c-8 -10 -9 -19 0 -35 12 -22 24 -19 40 10 14 26 -21 48 -40 25z"/> <path d="M2484 995 c-3 -8 1 -22 10 -30 15 -15 17 -15 25 7 5 13 7 26 4 31 -7 12 -33 8 -39 -8z"/> <path d="M2150 986 c-7 -10 -20 -14 -29 -11 -11 4 -13 3 -6 -4 14 -13 65 -25 64 -15 0 5 -4 17 -8 27 -6 17 -8 18 -21 3z"/> <path d="M2222 969 c-24 -29 -22 -33 20 -43 26 -6 27 -5 18 21 -5 16 -10 33 -12 39 -2 6 -13 -2 -26 -17z"/> <path d="M2540 988 c0 -7 -3 -23 -6 -35 -5 -18 -2 -23 12 -23 38 0 43 14 18 43 -13 16 -24 22 -24 15z"/> <path d="M2421 945 c-23 -39 -21 -41 50 -29 l35 6 -29 29 c-15 16 -30 29 -32 29 -2 0 -12 -16 -24 -35z"/> <path d="M2307 946 c-15 -22 -15 -25 -1 -30 9 -3 27 -6 40 -6 l25 0 -18 30 c-21 36 -26 37 -46 6z"/> <path d="M2671 946 c-6 -7 -46 -24 -89 -37 -111 -34 -278 -34 -377 0 -38 13 -74 27 -79 32 -30 28 -43 -27 -14 -58 36 -39 116 -54 287 -56 171 -2 279 13 306 43 15 16 15 21 1 54 -17 40 -19 42 -35 22z m13 -53 c-6 -9 -24 -21 -40 -25 -72 -20 -264 -30 -264 -13 0 6 31 11 71 11 71 2 167 25 204 50 25 18 45 2 29 -23z m-472 -9 c21 -7 43 -11 50 -9 17 6 45 -12 34 -22 -5 -4 -10 -3 -12 2 -2 6 -22 9 -43 7 -22 -2 -51 3 -68 12 -17 8 -34 12 -38 8 -5 -4 -5 -2 -2 5 4 6 1 14 -5 17 -26 11 48 -6 84 -20z m158 -25 c0 -9 -31 -21 -37 -15 -3 3 -3 9 1 14 6 10 36 12 36 1z"/> </g> </svg> 